<svg xmlns="http://www.w3.org/2000/svg" width="256" height="256"><path fill-opacity=".016" d="M0 128.004v128.004l128.25-.254 128.25-.254.254-127.75L257.008 0H0v128.004m.485.496c0 70.4.119 99.053.265 63.672.146-35.38.146-92.98 0-128C.604 29.153.485 58.1.485 128.5" fill="#1976D2" fill-rule="evenodd"/><path fill-opacity=".366" d="M38.618 4.112C21.271 8.185 5.118 24.499 1.079 42.028.418 44.9.044 75.663.036 128c-.013 88.595-.148 86.264 5.655 97.843 3.824 7.631 13.346 17.143 21.052 21.03C39.253 253.183 36.229 253 128 253c91.08 0 88.632.14 100.829-5.758 11.311-5.469 23.592-20.997 25.707-32.503.38-2.069 1.09-4.008 1.577-4.309.504-.312.887-36.368.887-83.548 0-46.984-.379-82.766-.872-82.461-.48.297-1.124-1.01-1.431-2.903-.308-1.894-1.988-6.436-3.733-10.094-6.12-12.823-20.229-24.173-33.992-27.345-5.657-1.303-172.792-1.273-178.354.033M.477 128c0 45.925.123 64.713.273 41.75.149-22.962.149-60.537 0-83.5C.6 63.288.477 82.075.477 128M35 78.079C28.959 80.81 24.252 85.451 21.387 91.5l-2.367 5-.01 56.554-.01 56.553 2.588 5.194c1.424 2.857 4.401 6.746 6.617 8.642 7.536 6.451 8.456 6.56 55.223 6.533l42.072-.023 23.72-19.227 23.72-19.226-.22-48-.22-48-3.102-5.5c-3.488-6.182-9.609-11.409-15.173-12.954-2.364-.657-24.008-1.029-59.225-1.018-53.655.015-55.65.084-60 2.051m57.001 7.044c-6.702 2.673-9.676 9.612-6.582 15.357 3.258 6.049 10.041 8.134 15.661 4.814 2.983-1.762 5.923-6.704 5.916-9.945-.006-3.237-3.922-8.42-7.486-9.909-3.951-1.651-4.143-1.659-7.509-.317m-5.751 45.141l-12.25.958v3.252c0 3.21.072 3.259 5.708 3.921 9.85 1.158 9.292-1.165 9.292 38.701 0 26.731-.289 34.973-1.25 35.595-.687.445-4.175 1.034-7.75 1.309-6.484.499-6.501.508-6.813 3.75l-.314 3.25H118v-7h-5.429c-9.099 0-8.571 2.717-8.571-44.071V129l-2.75.153c-1.513.084-8.263.584-15 1.111" fill="#1976D2" fill-rule="evenodd"/><path fill-opacity=".189" d="M38.634 4.586C19.803 9.144 4.291 25.81 1.016 45 .249 49.497.001 76.3.211 132c.302 79.839.322 80.547 2.476 86.202 1.195 3.136 3.356 7.722 4.804 10.193 3.562 6.077 14.14 15.788 20.688 18.992 11.281 5.519 12.317 5.577 100.411 5.596 78.093.016 81.382-.058 88.982-2.001 9.955-2.547 17.057-6.806 24.412-14.644 6.246-6.655 10.27-13.919 12.098-21.838.635-2.75 1.551-5.781 2.036-6.736 1.148-2.26 1.162-161.055.015-160.346-.477.295-1.153-1.545-1.501-4.088-1.679-12.249-13.047-27.542-25.348-34.098-11.82-6.3-10.317-6.209-101.784-6.134-68.097.056-84.053.324-88.866 1.488m36.067 18.695c-2.3 7.296-2.074 15.874.612 23.219l2.195 6 46.166.26 46.165.26 2.35-4.26 2.349-4.26 25.789-.267 25.789-.267 1.442-3.451c2.031-4.859 1.795-12.462-.549-17.763l-1.992-4.502-74.308-.182-74.308-.183-1.7 5.396M.477 128c0 44.275.123 62.388.273 40.25.15-22.137.15-58.362 0-80.5C.6 65.613.477 83.725.477 128M194.01 82.25l.01 33.25 3.99 1.676 3.99 1.675v17.075c0 9.391.158 17.074.351 17.074.193 0 1.779-.498 3.525-1.107 5.259-1.833 9.822-.292 15.758 5.323L227 162.29V49h-33l.01 33.25M37.404 76.806c-7.357 2.573-12.832 7.329-16.101 13.986L18.5 96.5l-.283 54.38c-.242 46.411-.059 55.151 1.245 59.636 2.009 6.913 8.736 14.425 15.759 17.598 5.257 2.376 5.456 2.387 47.279 2.677l42 .291 24.25-19.721L173 191.64l-.01-47.57-.01-47.57-2.333-5c-2.592-5.555-8.624-11.525-14.375-14.227-3.447-1.62-8.51-1.794-58.772-2.011-50.56-.219-55.411-.094-60.096 1.544m51.907 10.146c-6.987 4.26-5.905 14.548 1.933 18.378 12.257 5.989 21.222-12.999 9.072-19.213-3.257-1.665-7.423-1.349-11.005.835m-.811 43.716c-7.7.643-14.015 1.205-14.033 1.25-.018.045.02 1.32.085 2.832.111 2.59.453 2.786 5.875 3.378 9.532 1.039 9.031-.983 9.36 37.75.338 39.705.783 37.897-9.556 38.835-5.98.542-6.231.675-6.231 3.292v2.726l22-.092 22-.093v-2.644c0-2.485-.356-2.684-5.91-3.312-3.532-.4-6.45-1.318-7.25-2.282-1.052-1.266-1.447-10.331-1.84-42.21l-.5-40.598-14 1.168m116 26.802c-1.65.766-5.143 3.336-7.761 5.711l-4.762 4.319 1.517 4.926c1.228 3.991 1.278 5.261.261 6.691-.69.971-16.254 13.941-34.585 28.824L125.839 235l-7.169.015c-3.944.009-7.796.412-8.561.896-2.579 1.634 16.858 2.31 52.969 1.843 31.916-.413 36.181-.665 43.091-2.545 14.644-3.983 23.525-10.679 28.313-21.348 2.513-5.599 2.708-6.92 2.349-15.872-.365-9.075-.687-10.355-4.564-18.127-2.294-4.599-6.462-11.173-9.261-14.608-7.306-8.964-11.846-10.874-18.506-7.784" fill="#1976D2" fill-rule="evenodd"/><path fill-opacity=".597" d="M42 4.136c-8.424 1.381-19.226 6.985-26.096 13.537C8.614 24.627 2.549 36.173 1.024 46 .412 49.941.012 82.336.008 128.292c-.009 83.152.11 85.069 5.965 96.642 5.98 11.819 17.241 21.184 30.485 25.351 7.038 2.214 7.088 2.215 91.542 2.215 93.047 0 88.625.271 101.429-6.217 13.035-6.605 25.502-25.402 25.559-38.533.007-1.512.462-2.75 1.012-2.75.658 0 1-26.686 1-78.059 0-43.572-.382-77.823-.864-77.525-.475.293-1.138-1.786-1.474-4.621-.914-7.721-6.678-18.912-13.335-25.891-6.954-7.29-18.5-13.355-28.327-14.88-8.15-1.265-163.223-1.163-171 .112M75.557 19.25c-.21.688-.87 2.78-1.469 4.649-1.852 5.785-1.338 17.269 1.051 23.512L77.278 53l46.611-.003 46.611-.002 2.001-3.748 2.002-3.747 25.812-.267 25.813-.267 2.056-4.648c2.33-5.269 2.099-11.07-.722-18.122L225.783 18H150.86c-59.069 0-75.003.265-75.303 1.25m117.68 62.933l.263 33.184 4 2.074 4 2.074.273 17.097.273 17.098 3.767-1.006c6.239-1.665 10.813-.173 16.301 5.315l4.886 4.886V49h-34.027l.264 33.183M.476 128c0 43.175.123 60.838.274 39.25.15-21.587.15-56.912 0-78.5C.599 67.163.476 84.825.476 128m35.551-51.28c-6.171 2.201-14.202 10.411-16.351 16.717C18.188 97.806 18 104.535 18 153.591v55.234l3.257 6.292c2.067 3.994 4.823 7.487 7.544 9.562 7.987 6.092 10.086 6.328 55.631 6.257l41.068-.063 24-19.727 24-19.726v-47.46c0-46.267-.053-47.575-2.123-52.049-2.558-5.531-7.921-11.091-13.654-14.154L153.5 75.5 97 75.313c-49.501-.165-57.054.01-60.973 1.407m52.501 11.552c-4.697 4.697-4.925 10.021-.627 14.622 2.347 2.513 3.697 3.106 7.066 3.106 5.202 0 7.594-1.251 9.523-4.98 3.673-7.104-.268-14.644-8.212-15.71-3.845-.515-4.538-.25-7.75 2.962M91 130.656c-1.925.185-6.312.599-9.75.92-6.107.57-6.25.65-6.25 3.504 0 2.841.137 2.92 5.045 2.92 4.024 0 5.543.497 7.5 2.455L90 142.909l-.015 33.796c-.009 18.587-.346 34.29-.75 34.895-1.436 2.151-5.173 3.4-10.169 3.4-4.86 0-5.066.112-5.067 2.75v2.75l21.75-.21 21.751-.211.316-2.539c.299-2.4.061-2.54-4.315-2.54-4.609 0-8.334-1.301-9.736-3.4-.404-.605-.741-19.213-.75-41.35L103 130l-4.25.16c-2.338.088-5.825.311-7.75.496m115.146 25.725c-1.804.615-5.745 3.144-8.759 5.619-4.95 4.066-5.42 4.79-4.868 7.5 2.048 10.068 5.393 6.235-32.159 36.849l-33.86 27.605-7.595.023c-6.307.019-7.902.362-9.405 2.023-1.807 1.997-1.747 2 41.757 2 48.072 0 53.855-.524 65.4-5.927 7.557-3.536 15.037-10.714 18.195-17.46 6.85-14.634 1.429-35.579-13.249-51.194-6.744-7.175-10.305-8.796-15.457-7.038" fill="#1976D2" fill-rule="evenodd"/></svg>