<svg xmlns="http://www.w3.org/2000/svg" width="256" height="256"><path fill-opacity=".016" d="M0 128.004v128.004l128.25-.254 128.25-.254.254-127.75L257.008 0H0v128.004m.485.496c0 70.4.119 99.053.265 63.672.146-35.38.146-92.98 0-128C.604 29.153.485 58.1.485 128.5" fill="#1976D2" fill-rule="evenodd"/><path fill-opacity=".362" d="M38.112 1.581C20.218 6.393 6.205 20.596 1.489 38.703c-2.259 8.674-2.221 170.066.042 178.755 4.702 18.053 18.958 32.309 37.011 37.011C43.593 255.785 56.176 256 128 256c92.065 0 89.181.178 101.419-6.264 11.756-6.188 23.377-21.354 25.227-32.921.339-2.123 1.008-4.101 1.485-4.396.481-.297.869-38.518.869-85.537 0-48.324-.378-84.767-.875-84.459-.481.297-1.15-1.178-1.486-3.278-.336-2.101-2.275-7.155-4.31-11.232-6.547-13.12-18.42-22.618-33.032-26.424-8.394-2.186-171.024-2.103-179.185.092M.478 128c0 47.025.122 66.263.272 42.75.149-23.512.149-61.987 0-85.5C.6 61.738.478 80.975.478 128M116 86.46c0 20.188-.12 21.637-1.75 21.119-.963-.306-10.075-3.89-20.25-7.964l-18.5-7.408-.313-3.651c-.279-3.251-.553-3.574-2.5-2.949-5.712 1.833-9.465 2.194-13.956 1.342-2.687-.51-5.301-1.183-5.808-1.497-.54-.334-.923 3.578-.923 9.433 0 8.946.238 10.275 2.25 12.573 1.596 1.823 10.822 5.995 31.75 14.36l29.5 11.79.291 8.867c.161 4.877.081 9.417-.177 10.089-.331.861-8.55-1.409-27.774-7.671C72.822 140.002 60.189 136 59.767 136c-.422 0-.767 2.264-.767 5.032 0 5.575-2.012 11.288-5.154 14.632l-2.059 2.192 31.856 10.371 31.857 10.371V202.5L94 203c-14.183.33-22.221.914-23.62 1.715-3.128 1.794-5.592 7.646-4.855 11.533.715 3.77 2.004 5.674 5.448 8.048 2.254 1.554 7.221 1.704 56.299 1.704 46.158 0 54.245-.216 56.761-1.517 6.757-3.494 7.835-13.53 2.013-18.733l-3.078-2.75H139V178.493l29.25-10.406a20747.196 20747.196 0 0 0 31.546-11.239l2.297-.834-2.745-4.684c-1.951-3.328-2.905-6.606-3.297-11.328l-.551-6.645-26 9.343c-14.3 5.138-27.012 9.607-28.25 9.93-2.217.578-2.25.446-2.25-8.924v-9.51l3.25-1.175c1.787-.646 15.625-5.432 30.75-10.634 19.472-6.698 28.23-10.185 30-11.946 2.305-2.292 2.539-3.385 3-14.016.485-11.183.44-11.512-1.5-10.903-7.479 2.35-14.121 2.356-19.692.019-1.429-.6-1.739.021-2 3.994l-.308 4.704-19.5 6.738c-10.725 3.706-20.512 7.058-21.75 7.448l-2.25.71V86.96c0-20.729-.114-22.126-1.75-21.444-5.666 2.364-13.854 2.365-19.5.002-1.635-.684-1.75.688-1.75 20.942" fill="#1976D2" fill-rule="evenodd"/><path fill-opacity=".532" d="M40.375 1.491C30.28 3.687 23.205 7.636 15.42 15.42 7.501 23.34 3.684 30.283 1.447 40.837c-2.081 9.818-2.081 164.508 0 174.326 2.246 10.597 6.049 17.499 13.973 25.359 7.958 7.892 15.124 11.85 25.406 14.029 9.837 2.085 164.511 2.085 174.348 0 10.326-2.189 17.451-6.132 25.348-14.029 7.743-7.743 11.917-15.156 13.838-24.575.654-3.207 1.516-6.156 1.915-6.555s.725-37.625.725-82.725c0-45.1-.317-81.683-.705-81.295-.388.388-1.249-1.956-1.912-5.209-1.986-9.736-6.011-16.95-13.803-24.743-7.92-7.919-14.863-11.736-25.417-13.973-9.483-2.01-165.525-1.97-174.788.044m79.085 18.573c-4.274 1.243-11.129 7.391-13.708 12.293-1.589 3.023-2.178 5.9-2.178 10.643 0 7.803 2.316 12.861 8.409 18.365l4.127 3.729-.706 20.953c-.388 11.524-.987 20.953-1.331 20.953s-8.939-3.329-19.099-7.397L76.5 92.206l-.307-4.084c-.273-3.636.102-4.442 3.417-7.353 10.57-9.28 10.236-26.753-.69-36.106-9.435-8.075-23.926-7.503-32.721 1.292C40.862 51.292 39.542 54.66 39.52 63c-.017 6.405.382 8.184 2.734 12.185 1.514 2.576 4.061 5.615 5.659 6.753 2.845 2.026 2.912 2.286 3.246 12.548.471 14.467-.623 13.596 34.841 27.744l28.5 11.369.286 9.701c.158 5.335-.067 9.7-.499 9.7-.433 0-13.06-4.091-28.061-9.091l-27.276-9.092-1.525-3.658c-3.693-8.855-12.494-14.581-22.425-14.592-13.887-.015-23.926 9.914-23.978 23.715-.026 6.879 1.919 12.007 6.279 16.556 8.556 8.926 21.109 10.445 30.978 3.748l3.553-2.412 31.334 10.331 31.334 10.332.282 11.581.281 11.582H95.5c-20.661 0-24.104.596-27.868 4.821-1.028 1.154-2.08 4.029-2.339 6.388-.597 5.456 2.68 10.741 7.742 12.485 4.627 1.593 104.495 1.814 108.65.239 7.336-2.779 10.428-9.628 7.418-16.432-3.05-6.896-5.432-7.501-29.536-7.501h-20.63l.281-11.637.282-11.637 31.5-11.294c28.513-10.224 31.69-11.16 33.5-9.868 5.857 4.178 8.135 4.897 15.578 4.916 6.709.018 8.14-.327 12.474-3.006 6.853-4.237 10.746-10.795 11.268-18.981.504-7.928-.883-12.147-5.853-17.794-4.731-5.374-10.554-7.959-17.967-7.975-9.512-.021-17.888 5.252-21.901 13.788-1.16 2.468-2.262 4.488-2.45 4.488-.187 0-12.897 4.5-28.244 9.999-15.348 5.5-28.048 10-28.223 10-.175.001-.2-4.08-.056-9.067.202-7.008.615-9.252 1.818-9.874.856-.443 14.381-5.212 30.056-10.598 15.675-5.386 29.474-10.42 30.665-11.186 3.608-2.321 5.335-8.343 5.335-18.598v-9.284l3.588-3.446c5.597-5.377 7.772-10.399 7.772-17.946 0-7.931-2.436-13.197-8.51-18.397-11.828-10.124-29.723-6.392-36.993 7.715-5.277 10.242-1.999 24.134 7.121 30.182 2.544 1.687 3.017 2.647 3.019 6.128.002 2.27-.559 4.556-1.247 5.081-1.21.924-39.592 14.291-41.035 14.291-.393 0-.715-9.801-.715-21.78V64.44l3.541-3.34c5.584-5.266 7.885-10.549 7.885-18.1 0-7.904-2.445-13.148-8.576-18.397-6.168-5.279-14.97-6.987-23.39-4.539m4.897 14.906C121.382 36.2 119 39.904 119 43.299c0 3.711 4.875 8.701 8.5 8.701 3.718 0 8.5-4.988 8.5-8.867 0-5.689-6.539-10.274-11.643-8.163M.477 128c0 45.375.123 63.938.273 41.25.15-22.687.15-59.812 0-82.5C.6 64.063.477 82.625.477 128M61 54.706c-3.55 1.298-6 4.672-5.968 8.218.075 8.473 9.774 11.952 14.956 5.364 3.561-4.526 2.274-10.067-2.968-12.778-3.095-1.6-3.642-1.673-6.02-.804m130.357.264c-3.071 1.27-5.357 4.968-5.357 8.664 0 4.488 5.096 8.786 9.432 7.956C199.361 70.837 203 66.707 203 63c0-5.557-6.606-10.113-11.643-8.03m24.393 76.11c-2.616 1.524-4.956 6.679-4.187 9.22 2.189 7.225 10.225 9.118 14.937 3.518 2.093-2.488 2.549-3.851 2.09-6.25-1.122-5.856-7.978-9.32-12.84-6.488m-186.944 3.96c-2.542 2.542-2.939 3.566-2.424 6.25 1.339 6.977 9.017 9.851 14.262 5.34 5.769-4.962 1.951-14.63-5.777-14.63-2.032 0-4.016.995-6.061 3.04" fill="#1976D2" fill-rule="evenodd"/><path fill-opacity=".319" d="M35.798 2.931C20.019 7.976 7.793 20.217 2.985 35.783 1.07 41.983 1 45.248 1 128s.07 86.017 1.985 92.217c4.818 15.598 17.222 27.983 32.87 32.819C41.963 254.923 45.557 255 128 255c82.752 0 86.017-.07 92.217-1.985 15.598-4.818 27.983-17.222 32.819-32.87C254.923 214.037 255 210.443 255 128s-.077-86.037-1.964-92.145c-4.836-15.648-17.221-28.052-32.819-32.87-6.207-1.917-9.384-1.983-92.572-1.931-80.523.05-86.517.173-91.847 1.877M120 19.537c-12.899 4.005-19.883 18.108-15.769 31.84.727 2.425 3.186 6.137 6 9.057L115 65.381v20.81c0 11.445-.224 20.809-.497 20.809-.274 0-9.049-3.421-19.5-7.603L76 91.795v-3.71c0-2.949.605-4.156 2.957-5.895 1.626-1.202 4.213-4.324 5.75-6.938C87.094 71.191 87.5 69.409 87.5 63c0-6.396-.408-8.194-2.773-12.218-8.598-14.626-28.663-16.73-39.697-4.164-4.473 5.095-6.315 9.857-6.337 16.382-.023 7.107 2.8 13.431 8.147 18.247L51 84.995v9.052c0 9.831 1.36 13.996 5.26 16.105 1.232.666 14.84 6.259 30.24 12.429l28 11.218.288 9.722c.225 7.6.006 9.618-1 9.244-.709-.263-13.326-4.474-28.038-9.357-26.118-8.67-26.775-8.954-27.78-11.998-1.549-4.695-7.356-10.901-12.432-13.287-5.416-2.546-14.591-2.834-19.879-.625-15.078 6.3-20.147 24.724-10.375 37.71 7.324 9.733 20.065 12.456 31.514 6.735l6.117-3.056 31.042 10.211L115 179.309v22.581l-21.579.305-21.579.305-3.421 3.735C65.58 209.338 65 210.738 65 214.5c0 3.763.579 5.161 3.423 8.265l3.423 3.735h55.504c54.738 0 55.542-.029 58.327-2.091 1.553-1.149 3.466-3.91 4.253-6.134 1.244-3.522 1.24-4.542-.036-7.894-.843-2.214-2.893-4.812-4.827-6.115-3.228-2.175-4.202-2.266-24.247-2.266h-20.883l.281-11.658.282-11.659 30.843-11.017c30.475-10.885 30.875-10.996 33.5-9.287 5.329 3.47 9.774 4.909 15.157 4.909 26.345 0 34.2-35.236 10.445-46.859-4.779-2.338-6.37-2.629-11.94-2.182-4.447.357-7.813 1.33-10.933 3.158-4.313 2.528-9.59 8.851-10.929 13.095-.496 1.574-6.311 4.023-27.304 11.5-14.671 5.225-27.274 9.645-28.007 9.823-1.033.251-1.332-1.659-1.332-8.525v-8.848l28.75-9.869c15.813-5.428 30.007-10.501 31.544-11.274 5.247-2.637 6.698-6.601 6.702-18.307L207 84.5l3.618-2.887c2.038-1.626 4.707-5.264 6.111-8.333 8.656-18.906-8.977-39.734-28.756-33.966-18.891 5.51-24.423 29.012-9.915 42.12 3.443 3.11 3.942 4.113 3.942 7.926v4.365l-19.75 6.781c-10.863 3.73-20.312 6.99-21 7.245-.976.361-1.25-4.279-1.25-21.147V64.995l3.904-3.527c14.199-12.829 8.927-36.548-9.336-41.997-5.956-1.777-8.674-1.765-14.568.066m2.201 17.491c-3.015 2.808-3.649 6.205-1.819 9.743C122.034 49.966 123.774 51 127.5 51c3.726 0 5.466-1.034 7.118-4.229 4.056-7.844-5.993-15.729-12.417-9.743M57.455 57.455C52.374 62.535 56.015 71 63.28 71c4.514 0 7.72-3.423 7.72-8.242 0-6.951-8.551-10.298-13.545-5.303m132.426-1.448c-2.906 1.698-4.298 6.572-2.865 10.031 1.46 3.526 3.714 4.975 7.668 4.93 3.489-.039 5.929-1.82 7.249-5.291 2.573-6.768-5.682-13.392-12.052-9.67m24.192 77.628c-2.806 3.566-2.655 7.874.382 10.91 5.08 5.081 13.545 1.44 13.545-5.825 0-7.19-9.534-10.671-13.927-5.085m-182.573-.48c-3.064 1.676-4.5 3.942-4.5 7.102 0 4.098 1.502 6.374 5.016 7.599 5.618 1.958 10.92-1.613 10.92-7.356 0-3.382-1.415-5.629-4.62-7.337-2.678-1.426-4.221-1.428-6.816-.008" fill="#1976D2" fill-rule="evenodd"/></svg>