<svg xmlns="http://www.w3.org/2000/svg" width="256" height="256"><path fill-opacity=".016" d="M0 128.004v128.004l128.25-.254 128.25-.254.254-127.75L257.008 0H0v128.004m.485.496c0 70.4.119 99.053.265 63.672.146-35.38.146-92.98 0-128C.604 29.153.485 58.1.485 128.5" fill="#1976D2" fill-rule="evenodd"/><path fill-opacity=".366" d="M39.348 4.42C23.136 8.352 8.989 21.175 2.762 37.581L.515 43.5.211 124c-.209 55.423.04 82.525.799 87 3.201 18.86 18.689 35.561 37.532 40.469 8.822 2.298 170.056 2.297 178.998-.001 9.425-2.422 16.445-6.453 23.46-13.47 7.792-7.795 11.345-14.091 14.022-24.849 1.931-7.758 1.991-10.837 1.709-87.345-.224-60.698-.593-80.36-1.572-83.804-3.939-13.843-14.337-27.039-25.902-32.873-12.529-6.319-9.445-6.135-101.217-6.042-63.159.064-84.797.39-88.692 1.335M.477 128c0 44.275.123 62.388.273 40.25.15-22.137.15-58.362 0-80.5C.6 65.613.477 83.725.477 128m127.87-45.999c-11.582 5.891-13.605 22.297-3.809 30.898 3.143 2.76 8.848 5.09 12.462 5.09 6.646 0 15.021-5.641 17.161-11.558 1.202-3.324 1.407-3.431 6.573-3.431h5.332l-.283 11.25-.283 11.25-23.543.268-23.542.267-1.241-3.431c-1.658-4.585-8.173-10.326-12.677-11.171C91.713 109.035 81 117.166 81 129.267c0 6.273 1.867 10.531 6.338 14.457 9.221 8.096 23.017 5.696 28.662-4.987l2.5-4.731 23.75-.003L166 134v22h-4.252c-4.026 0-4.379-.241-6.669-4.557-9.079-17.115-35.083-10.671-35.077 8.693.001 6.583 2.217 11.198 7.341 15.293 3.501 2.798 4.493 3.071 11.157 3.071 6.645 0 7.666-.279 11.157-3.047 2.114-1.676 4.731-4.939 5.817-7.25 1.859-3.957 2.22-4.203 6.175-4.203 3.903 0 4.366.299 6.529 4.22 1.377 2.497 3.959 5.154 6.325 6.509 3.922 2.246 4.489 2.285 30.176 2.03 24.779-.245 26.33-.371 29-2.351 4.404-3.266 7.132-8.042 7.831-13.708.353-2.86.495-18.959.316-35.775l-.326-30.576-2.751-4.155c-5.099-7.7-7.204-8.194-34.893-8.194-22.551 0-24.524.145-28.554 2.096-2.939 1.423-5.159 3.511-6.911 6.5-2.484 4.238-2.762 4.404-7.397 4.404-4.728 0-4.856-.083-7.026-4.566-4.435-9.162-16.427-13.109-25.621-8.433m56.105 19.262c-.266.695-.365 13.858-.218 29.25l.266 27.987 19.25.272 19.25.271V100h-19.031c-14.411 0-19.149.307-19.517 1.263" fill="#1976D2" fill-rule="evenodd"/><path fill-opacity=".434" d="M42 4.119c-7.14 1.15-18.362 6.687-24.498 12.089-6.374 5.609-12.039 14.519-14.787 23.25C.504 46.488.5 46.644.5 128s.004 81.512 2.215 88.542c5.815 18.479 21.443 32.289 40.086 35.42 4.696.788 31.523 1.033 89.699.819 82.343-.303 83.045-.323 88.702-2.473 8.476-3.221 14.535-7.083 20.293-12.934 6.999-7.112 11.278-15.519 13.582-26.683 1.762-8.537 1.898-14.464 1.91-83.318.014-82.253.031-82.007-6.561-95.966-4.065-8.607-14.227-18.748-22.896-22.85-11.634-5.503-12.143-5.531-99.53-5.423-44.275.055-82.975.498-86 .985M31.643 32.028c-3.48 1.043-6.382 3.566-8.245 7.17-2.046 3.956-1.91 22.92.195 27.357C25.485 70.542 31.859 74 37.316 74H41v113h-4.55c-5.687 0-9.965 2.157-12.49 6.299-1.617 2.651-1.953 5.054-1.956 13.983-.005 12.547 1.305 16.717 6.186 19.692 3.001 1.83 5.019 2.019 21.61 2.022 19.827.004 22.075-.479 26.112-5.611 1.148-1.46 2.088-3.494 2.088-4.52 0-1.749 1.069-1.863 17.25-1.829l17.25.036 2 4.214c3.29 6.933 5.964 7.711 26.516 7.712 19.783.002 22.77-.804 26.203-7.075 1.599-2.92 1.831-5.215 1.578-15.61-.291-11.96-.352-12.245-3.249-15.266-4.276-4.459-8.706-5.26-26.964-4.872-18.54.393-21.235 1.258-24.241 7.777l-1.843 3.996-9.099.026c-5.005.014-12.51.314-16.678.667l-7.579.64-1.443-3.39c-2.386-5.606-5.865-8.066-12.4-8.768L59.5 186.5v-112l5.261-.642c6.666-.814 10.041-3.03 12.106-7.947L78.5 62.02l17 .026 17 .026 2 4.146c3.358 6.96 6.121 7.786 25.984 7.76 26.639-.034 28.938-1.899 28.348-22.989-.324-11.57-.405-11.94-3.275-14.933-4.13-4.306-7.896-5.047-25.557-5.028-18.79.019-23.037 1.326-25.816 7.942l-1.684 4.01h-34l-1.684-4.01c-2.812-6.694-6.98-7.939-26.316-7.862-8.8.035-17.286.449-18.857.92M.476 128c0 42.075.123 59.288.274 38.25.15-21.037.15-55.462 0-76.5C.599 68.713.476 85.925.476 128M132 80.144c-15.89 4.656-19.018 25.453-5.247 34.889 2.319 1.589 5.271 2.478 9.09 2.739 7.893.538 13.579-2.537 17.657-9.547 2.86-4.917 3.199-5.16 7.25-5.192L165 103v22h-46.783l-.634-2.525c-.349-1.389-2.363-4.255-4.477-6.369-4.916-4.916-11.746-6.819-18.219-5.076-5.814 1.566-12.295 8.059-13.866 13.891-4.126 15.324 11.979 28.805 26.52 22.199 4.484-2.036 9.134-6.978 10.068-10.697l.608-2.423H165v22h-3.892c-3.284 0-3.986-.378-4.499-2.423-.934-3.719-5.584-8.661-10.068-10.697-11.743-5.335-25.427 2.391-27.169 15.34-.931 6.915 3.07 14.783 9.406 18.496 9.478 5.554 21.988 2.072 26.656-7.421 1.932-3.93 2.339-4.205 6.29-4.248 3.666-.041 4.422.334 5.714 2.834 2.05 3.963 6.895 7.84 11.343 9.075 2.049.569 13.596 1.025 25.719 1.016 19.123-.014 22.524-.254 26.009-1.837 5.044-2.292 10.207-8.095 10.999-12.364.334-1.799.469-18.417.3-36.93l-.308-33.659-3.106-3.841c-6.013-7.436-7.369-7.8-30.394-8.171-11.275-.182-22.84-.04-25.7.315-6.167.767-10.899 3.694-14.218 8.797-2.242 3.449-2.769 3.718-7.274 3.718-4.152 0-4.985-.335-5.734-2.306-3.25-8.548-14.353-14.106-23.074-11.55m53 49.356V158h38v-57h-38v28.5" fill="#1976D2" fill-rule="evenodd"/><path fill-opacity=".422" d="M44.247 4.09C23.195 7.675 7.738 21.552 2.531 41.542.267 50.233.232 205.63 2.492 214.307c4.468 17.155 15.693 29.297 32.906 35.595L42.5 252.5h85c79.679 0 85.373-.115 90.957-1.838 9.069-2.798 14.771-6.053 21.466-12.252 7.382-6.833 13.496-18.373 15.053-28.41 1.373-8.846 1.354-155.321-.021-164-2.901-18.313-16.527-34.037-34.883-40.256-6.567-2.225-6.633-2.227-88.572-2.388-45.1-.088-84.364.242-87.253.734m-15.79 28.773c-6.015 3.668-6.957 6.333-6.957 19.681 0 9.924.318 12.529 1.804 14.798 2.638 4.026 7.546 6.65 12.446 6.654L40 74v112h-2.98c-5.161 0-10.805 2.918-13.251 6.851-2.016 3.242-2.269 4.933-2.269 15.149 0 13.518 1.329 16.77 8.212 20.102 3.901 1.889 5.734 2.033 22.022 1.729 16.879-.314 17.934-.451 21.129-2.73 1.85-1.319 3.985-3.885 4.744-5.703l1.381-3.305 16.599-.296 16.598-.297 1.272 3.047c.699 1.675 2.747 4.288 4.55 5.806l3.279 2.759 20.294-.306 20.293-.306 3.08-2.952c4.111-3.943 5.336-9.128 4.874-20.636-.427-10.654-1.68-13.632-7.131-16.956-2.865-1.747-5.124-1.949-21.798-1.952-17.659-.004-18.775.111-22 2.259-1.869 1.245-4.223 3.945-5.23 6L111.835 198h-32.67l-1.833-3.685c-2.506-5.041-6.241-7.504-12.258-8.082L60 185.746V74h4.965c4.089 0 5.567-.528 8.377-2.995 1.876-1.648 3.972-4.348 4.656-6L79.243 62h32.73l1.385 3.25c.761 1.787 2.602 4.375 4.091 5.75 2.672 2.467 2.963 2.504 22.379 2.779 18.145.257 19.92.124 22.868-1.703 5.958-3.693 6.804-6.127 6.804-19.576 0-13.456-.857-15.918-6.804-19.544-2.865-1.747-5.124-1.949-21.798-1.952-17.659-.004-18.775.111-22 2.259-1.869 1.245-4.223 3.945-5.23 6L111.835 43l-16.167-.003-16.168-.002-2-3.717c-1.1-2.044-3.529-4.743-5.398-5.997-3.235-2.172-4.291-2.281-22-2.277-16.355.003-18.969.228-21.645 1.859M130 80.594c-12.344 5.347-16.304 19.652-8.35 30.165 5.298 7.003 16.292 9.352 24.403 5.214 3.941-2.01 9.947-9.029 9.947-11.623 0-.933 1.389-1.35 4.5-1.35h4.5v22h-45.959l-1.977-3.874c-7.375-14.457-27.155-14.581-34.737-.219-4.351 8.241-1.941 18.205 5.913 24.452 4.311 3.428 12.228 4.632 17.981 2.733 4.237-1.398 9.613-6.493 11.44-10.842l1.366-3.25H165v22h-3.525c-2.927 0-3.7-.466-4.561-2.75-1.417-3.76-6.736-9.198-10.632-10.869-3.833-1.645-11.049-1.798-14.967-.317-3.777 1.427-8.079 5.621-10.407 10.146-7.702 14.975 8.586 32.456 24.557 26.356 4.825-1.842 10.137-7.134 11.129-11.084.545-2.171 1.173-2.482 5.014-2.482 2.416 0 4.392.449 4.392.997 0 1.861 7.484 9.302 10.718 10.656 4.936 2.066 48.998 1.91 54.028-.191 4.75-1.985 7.021-4.089 9.36-8.672 1.751-3.43 1.894-6.333 1.894-38.412V94.676l-2.491-4.251c-1.37-2.338-4.183-5.303-6.25-6.588-3.616-2.248-4.656-2.349-27.259-2.663-15.165-.21-24.814.066-27.205.777-4.475 1.332-9.331 5.252-11.357 9.168-1.331 2.574-2.006 2.881-6.342 2.881-4.4 0-4.964-.268-6.042-2.869-1.602-3.869-6.738-8.689-11.272-10.58-4.638-1.935-9.249-1.92-13.782.043m55 48.906V158h37v-57h-37v28.5" fill="#1976D2" fill-rule="evenodd"/></svg>