<svg xmlns="http://www.w3.org/2000/svg" width="256" height="256"><path fill-opacity=".016" d="M0 128.004v128.004l128.25-.254 128.25-.254.254-127.75L257.008 0H0v128.004m.485.496c0 70.4.119 99.053.265 63.672.146-35.38.146-92.98 0-128C.604 29.153.485 58.1.485 128.5" fill="#1976D2" fill-rule="evenodd"/><path fill-opacity=".203" d="M30.487 1.788C18.456 5.974 9.099 14.348 3.685 25.777L.5 32.5v191l3.201 6.759a45.8 45.8 0 0 0 21.172 21.523l7.523 3.718H223.5l6.759-3.201c9.109-4.315 16.87-11.834 21.247-20.585 1.922-3.84 3.494-7.796 3.494-8.789 0-.994.45-2.085 1-2.425.655-.405 1-32.697 1-93.618 0-61.745-.336-92.792-1-92.382-.55.34-1-.248-1-1.307 0-1.058-1.572-5.067-3.494-8.907-4.377-8.751-12.138-16.27-21.247-20.585L223.5.5l-94-.228C42.333.061 35.136.171 30.487 1.788m120.591 47.29c-5.098 18.24-8.027 30.373-7.469 30.931.558.558 2.875-.046 5.905-1.54 9.973-4.918 21.242-5.405 31.926-1.378 2.718 1.024 5.059 1.744 5.203 1.599.323-.323-25.6-57.91-26.517-58.907-.363-.395-4.435 12.788-9.048 29.295M75.626 32.196c.203 1.267 1.939 14.679 3.858 29.804 1.919 15.125 3.746 28.994 4.061 30.819l.572 3.32 2.77-3.82c1.523-2.1 4.503-5.339 6.622-7.197 4.586-4.022 14.957-9.12 18.553-9.121 1.701-.001 3.327-1.036 4.838-3.08 1.252-1.693 2.124-3.192 1.938-3.33-.186-.139-9.113-8.285-19.838-18.103-26.595-24.347-23.817-22.054-23.374-19.292M.48 128c0 51.425.121 72.462.27 46.75.148-25.713.148-67.788 0-93.5C.601 55.537.48 76.575.48 128m118.382-53.612c-10.251 14.911-18.518 27.246-18.37 27.409.148.163 3.197-.243 6.776-.902 11.229-2.069 23.832 1.683 32.768 9.756 2.18 1.97 3.964 3.081 3.964 2.469 0-1.77-6.051-64.553-6.287-65.232-.117-.337-8.6 11.588-18.851 26.5M43 70.274c0 1.506 4.895 60.343 5.254 63.154.196 1.539.798 1.129 2.982-2.034 6.548-9.48 18.498-15.558 30.998-15.766l7.735-.128-23.227-23.25C53.968 79.463 43.4 69 43.258 69c-.142 0-.258.573-.258 1.274m141.585 27.808c-10.953 13.43-20.251 24.868-20.663 25.418-.487.651 2.974 1 9.915 1 9.744 0 11.173.25 16.575 2.903 3.251 1.596 8.089 5.001 10.75 7.566l4.838 4.663-.109-27.066c-.059-14.886-.397-29.729-.75-32.984l-.641-5.917-19.915 24.417m-25.092-20.501c-1.045.44 1.448 41.694 2.589 42.834.318.318 2.713-2.007 5.322-5.168l4.744-5.747-.619-11c-.341-6.05-.886-13.362-1.212-16.25l-.592-5.25-4.613.079c-2.536.043-5.065.269-5.619.502m-57.243 4.524C99.912 83.262 98 84.63 98 85.144c0 .515.926 2.751 2.058 4.969l2.058 4.034 3.837-5.323c2.928-4.063 3.617-5.739 2.907-7.074-1.175-2.209-1.46-2.194-6.61.355m4.75 21.293c0 .219 1.103 2.339 2.45 4.712 1.578 2.777 2.615 3.793 2.912 2.852.254-.804.928-2.925 1.498-4.712l1.036-3.25h-3.948c-2.171 0-3.948.179-3.948.398m6.616 13.838c-2.045 7.845-3.95 15.051-4.234 16.014-.452 1.53.24 1.75 5.512 1.75h6.029l1.108-4.25c.609-2.338 2.201-8.3 3.537-13.25 1.337-4.95 2.431-9.547 2.431-10.215.001-1.542-2.513-2.844-7.083-3.667l-3.583-.646-3.717 14.264m-46.381 4.247-5.254 2.434 2.718 5.541L67.417 135h12.61l-1.363-3.25c-.749-1.787-2.445-5.377-3.768-7.976l-2.407-4.726-5.254 2.435m58.902 3.767c-.649 2.887-1.449 6.262-1.776 7.5-.569 2.153-.33 2.25 5.522 2.25 3.365 0 6.117-.284 6.117-.63 0-1.148-7.408-14.37-8.051-14.37-.347 0-1.162 2.362-1.812 5.25M166 126.721c-3.589.644-4.291 1.677-3.522 5.18.659 3 .853 3.099 6.101 3.099H174v-4.5c0-4.275-.137-4.493-2.75-4.364-1.512.075-3.875.338-5.25.585m13.125 3.351c-1.684 4.83-1.589 4.928 4.768 4.928 5.69 0 7.107-.79 7.107-3.96 0-.868-3.955-2.611-8.125-3.583-2.284-.532-2.772-.192-3.75 2.615m-96.839 10.32c-10.383 3.39-18.537 10.614-23.129 20.488-2.176 4.679-2.612 7.043-2.605 14.12.012 11.048 3.229 18.611 11.071 26.028 8.132 7.691 12.811 9.472 24.877 9.472 8.897 0 10.62-.305 15.626-2.764 14.069-6.911 22.68-23.516 19.924-38.421-3.206-17.348-16.656-29.253-33.865-29.976-4.688-.198-9.328.213-11.899 1.053m7.767 5.044c-.655.789-2.623 1.733-4.372 2.097-1.75.363-4.756 1.578-6.681 2.7-1.925 1.121-4.607 2.09-5.96 2.153-1.874.087-2.623.828-3.144 3.114-.376 1.65-1.632 4.783-2.79 6.961-1.158 2.179-2.106 4.706-2.106 5.616 0 .909-.95 2.861-2.111 4.337-1.883 2.394-1.951 2.867-.626 4.385.816.935 2.041 3.501 2.722 5.701.681 2.2 1.941 5.116 2.8 6.479.859 1.364 1.841 3.839 2.183 5.5.425 2.063 1.242 3.053 2.577 3.123 1.075.056 4.43 1.289 7.455 2.74 3.025 1.451 6.232 2.643 7.128 2.648.895.006 2.187.685 2.872 1.51s1.81 1.5 2.5 1.5 1.815-.675 2.5-1.5 1.977-1.504 2.872-1.51c.896-.005 4.103-1.197 7.128-2.648 3.025-1.451 6.392-2.684 7.482-2.74 1.169-.06 2.107-.923 2.287-2.102.299-1.965 4.072-11.266 6.829-16.831 1.79-3.615 1.768-5.12-.098-6.669-.825-.685-1.505-2.202-1.512-3.372-.007-1.171-1.132-4.086-2.5-6.48s-2.488-5.431-2.488-6.75-.338-2.455-.75-2.526c-.412-.07-1.678-.229-2.813-.354-1.135-.125-3.16-.929-4.5-1.786-1.34-.858-4.462-2.138-6.937-2.845-2.475-.708-4.86-1.872-5.3-2.587-1.054-1.713-3.163-1.652-4.647.136m.947 3.647c0 3.826 2.356 3.483 2.816-.41.225-1.894-.139-2.673-1.25-2.673-1.083 0-1.566.951-1.566 3.083m-20 5.762c0 1.545 3.856 4.362 5.002 3.654.787-.487.608-1.273-.592-2.598-1.757-1.942-4.41-2.577-4.41-1.056m38.59 1.056c-1.2 1.325-1.379 2.111-.592 2.598 1.146.708 5.002-2.109 5.002-3.654 0-1.521-2.653-.886-4.41 1.056M89.5 163.85c-10.287 3.345-11.586 17.709-1.966 21.729 4.357 1.82 5.891 1.788 10.109-.214 9.023-4.282 8.248-17.006-1.279-20.986-3.559-1.487-3.849-1.51-6.864-.529m.143 9.25c-1.981 2.828-.477 6.166 2.573 5.711 2.933-.438 4.58-3.325 3.172-5.561-1.631-2.589-3.994-2.651-5.745-.15m-26.162.93c-.388.629-.254 1.597.3 2.151 1.421 1.421 4.719.586 4.719-1.195 0-1.798-4.024-2.564-5.019-.956m53.228-.406c-1.742 1.742-.618 3.498 2.041 3.192 1.637-.188 2.75-.923 2.75-1.816 0-1.572-3.57-2.597-4.791-1.376m-44.054 19.205c-2.006 2.217-2.099 3.171-.31 3.171 1.709 0 4.88-3.442 3.991-4.331-1.064-1.064-1.91-.797-3.681 1.16m36.009-1.16c-.889.889 2.282 4.331 3.991 4.331 1.877 0 1.676-1.39-.484-3.345-2.022-1.83-2.522-1.971-3.507-.986M143 193.704c-3.076 1.119-7.065 5.823-8.054 9.498-2.529 9.389 4.143 17.798 14.12 17.798 4.124 0 10.934-3.165 10.934-5.082 0-.505-3.17-.918-7.045-.918-6.147 0-7.359-.313-9.5-2.455-1.548-1.547-2.455-3.597-2.455-5.545s.907-3.998 2.455-5.545c2.141-2.142 3.353-2.455 9.5-2.455 3.875 0 7.045-.413 7.045-.918 0-.506-1.516-1.856-3.368-3-3.242-2.004-10.027-2.69-13.632-1.378m-51.552 5.57c-.796 2.074-.23 4.776 1.052 5.029 1.394.275 1.9-4.303.617-5.586-.735-.735-1.237-.568-1.669.557m53.007 3.181c-1.35 1.35-2.455 3.395-2.455 4.545s1.105 3.195 2.455 4.545c2.441 2.442 2.557 2.455 22.389 2.455 17.883 0 20.169-.19 22.212-1.844 3.096-2.507 3.096-7.805 0-10.312-2.043-1.654-4.329-1.844-22.212-1.844-19.832 0-19.948.013-22.389 2.455" fill="#1976D2" fill-rule="evenodd"/><path fill-opacity=".21" d="M30.762 1.942C16.498 6.502 5.696 17.648 1.558 32.076c-1.422 4.961-1.569 15.762-1.328 98L.5 222.5l2.243 5.5C7.268 239.096 16.904 248.732 28 253.257l5.5 2.243 92.424.27c100.892.295 97.744.454 107.866-5.414 9.584-5.556 17.656-15.553 20.205-25.025.715-2.657 1.684-5.259 2.152-5.781 1.096-1.221 1.125-184.836.029-184.159-.453.28-1.392-1.709-2.087-4.421-2.435-9.501-10.64-19.735-20.299-25.319C223.728-.166 226.785-.005 127.568.054 42.08.104 36.148.22 30.762 1.942m120.429 45.867c-7.716 27.733-9.289 34.916-7.441 33.976 11.524-5.858 12.879-6.268 21.87-6.616 7.961-.308 9.926-.028 15.452 2.204 3.482 1.407 6.4 2.46 6.484 2.342.196-.275-27.082-60.575-27.667-61.16-.241-.24-4.155 12.924-8.698 29.254M75.352 33.25c.316 1.788 2.179 15.85 4.139 31.25 4.616 36.261 3.96 33.757 7.415 28.309 4.859-7.662 15.88-15.109 24.37-16.468 2.633-.422 4.414-1.501 5.884-3.566l2.109-2.961-2.385-2.267C105.708 56.923 76.009 30 75.465 30c-.378 0-.429 1.462-.113 3.25M.48 128c0 50.875.121 71.687.27 46.25.148-25.438.148-67.063 0-92.5C.601 56.312.48 77.125.48 128m125.792-64.732a7156.59 7156.59 0 0 1-19.258 28.02c-7.572 10.936-7.958 11.73-5.338 11 1.553-.434 7.099-.788 12.324-.788 11.432 0 16.807 1.777 24.618 8.139l5.382 4.384-.012-2.761c-.016-3.996-5.853-63.46-6.269-63.876-.193-.193-5.344 6.954-11.447 15.882M45.17 99.25c1.479 17.188 2.721 32.339 2.76 33.67.062 2.141.71 1.713 5.619-3.711 7.855-8.68 15.906-12.53 27.617-13.206l8.722-.503-23.036-23.75C54.183 78.688 43.516 68 43.149 68c-.367 0 .542 14.063 2.021 31.25M184 98.228c-11.275 13.823-20.613 25.389-20.75 25.703-.137.313 4.363.569 10 .569 9.382 0 10.8.261 16.75 3.087 3.575 1.697 8.637 5.168 11.25 7.712l4.75 4.626v-33.462c0-18.405-.338-33.442-.75-33.416-.412.026-9.975 11.358-21.25 25.181m-25.353-20.466c-.628 1.017 2.605 44.248 3.306 44.201.761-.05 10.553-12.826 10.523-13.729-.183-5.559-1.705-25.53-2.133-27.984-.555-3.189-.665-3.25-5.895-3.25-2.932 0-5.542.343-5.801.762M103.5 81.153c-1.1.6-3.004 1.716-4.232 2.48l-2.231 1.389 2.181 4.489c1.199 2.469 2.466 4.489 2.815 4.489.349 0 2.339-2.475 4.423-5.5 3.127-4.54 3.571-5.763 2.544-7-1.461-1.761-2.761-1.843-5.5-.347m3.545 22.597c.025.412 1.113 2.775 2.418 5.25 2.495 4.734 2.602 4.679 4.402-2.25l.974-3.75h-3.92c-2.155 0-3.899.338-3.874.75m9.082 2.881c-.558 2.128-2.389 9.044-4.069 15.369-1.68 6.325-3.056 12.063-3.056 12.75-.002.86 1.856 1.25 5.959 1.25h5.962l.982-3.75c.54-2.062 2.331-8.833 3.981-15.047l2.999-11.296-2.693-1.041c-1.48-.573-4.123-1.281-5.871-1.573-2.996-.501-3.238-.309-4.194 3.338M67 121.404c-4.87 2.541-4.889 2.647-1.795 9.846l2.041 4.75h6.377c3.507 0 6.377-.394 6.377-.875 0-1.647-6.948-16.125-7.725-16.097-.426.016-2.8 1.085-5.275 2.376m58.588 4.846c-.978 3.988-1.997 7.813-2.266 8.5-.363.928 1.333 1.25 6.587 1.25h7.076l-4.215-8.5c-2.319-4.675-4.483-8.5-4.81-8.5-.327 0-1.394 3.263-2.372 7.25m39.108.471c-2.618.394-2.784.699-2.5 4.601l.304 4.178 6.377.301c5.557.262 6.296.091 5.75-1.332-.345-.898-.627-3.171-.627-5.051 0-3.22-.188-3.409-3.25-3.268-1.787.082-4.512.339-6.054.571m14.459 2.408c-2.712 7.242-2.937 6.871 4.171 6.871 6.566 0 7.674-.665 7.674-4.607 0-1.464-3.278-3.092-8.229-4.087-2.216-.445-2.896-.102-3.616 1.823m-94.005 9.945c-11.508 2.263-22.802 12.077-27.139 23.582-3.122 8.281-2.533 20.567 1.347 28.13 6.714 13.085 19.395 21.162 33.287 21.202 6.308.018 16.29-3.522 21.771-7.721 25.478-19.519 15.773-59.324-15.89-65.178-6.595-1.219-7.248-1.219-13.376-.015m9.311 9.687c.03 2.085-.438 2.739-1.961 2.739-1.279 0-2.11-.768-2.304-2.132-.28-1.962-.634-2.057-4.455-1.199-2.282.513-5.855 1.891-7.938 3.062-3.423 1.923-3.644 2.287-2.295 3.778 2.947 3.256.737 6.427-2.462 3.532-1.719-1.555-1.949-1.486-3.826 1.152-1.098 1.544-2.69 5.143-3.537 7.997l-1.54 5.191 2.679.309c3.517.407 3.554 3.208.047 3.615-2.534.294-2.598.455-1.722 4.355 1.061 4.719 3.122 8.988 5.154 10.675 1.123.932 1.695.875 2.639-.263 1.287-1.55 4.06-1.067 4.06.706 0 .586-.678 1.814-1.507 2.73-1.373 1.517-1.082 1.895 3.25 4.222 2.616 1.405 6.185 2.857 7.929 3.225 2.79.589 3.212.391 3.5-1.643.487-3.434 4.337-3.19 4.301.273-.026 2.585-.026 2.585 4.312 1.279 2.386-.718 6.107-2.3 8.269-3.515 3.677-2.066 3.826-2.324 2.317-3.992-.897-.99-1.333-2.514-.982-3.428.582-1.518.822-1.521 3.094-.032 2.362 1.547 2.535 1.506 4.185-1.014.947-1.445 2.507-4.935 3.466-7.755l1.744-5.128-2.689-.51c-1.479-.28-2.689-1.176-2.689-1.99 0-.814 1.21-1.71 2.689-1.99l2.689-.51-1.744-5.128c-.959-2.82-2.542-6.346-3.517-7.834-1.678-2.56-1.874-2.615-3.632-1.024-3.232 2.925-5.456-.231-2.48-3.519 1.371-1.515 1.035-1.901-3.765-4.329-2.898-1.466-6.185-2.666-7.304-2.666-1.12 0-2.481-.445-3.025-.989-.651-.651-.975-.054-.95 1.75m19.103 5.532c.376.986.935 1.541 1.243 1.233.308-.307.001-1.114-.683-1.793-.988-.98-1.102-.865-.56.56m-26.534 9.986c-1.358.688-3.535 2.819-4.836 4.736-3.368 4.961-2.552 10.352 2.23 14.734 6.801 6.233 16.976 3.324 19.656-5.621 2.864-9.559-8.034-18.411-17.05-13.849m2.637 8.388c-1.31 1.309-.635 4.28 1.195 5.259 2.699 1.445 5.605-.878 4.693-3.752-.668-2.104-4.349-3.046-5.888-1.507m52.551 20.996c-9.009 4.441-10.914 16.575-3.729 23.759 5.705 5.706 13.735 5.955 19.816.615 3.167-2.78 3.634-2.875 15.901-3.201 11.765-.313 12.817-.504 15.216-2.76 4.314-4.057 2.96-9.84-2.819-12.037-1.503-.571-7.809-1.039-14.013-1.039-10.262 0-11.452-.193-13.185-2.138-4.169-4.679-11.438-6.032-17.187-3.199m-28.654 2.044c-.542 1.425-.428 1.54.56.56.684-.679.991-1.486.683-1.793-.308-.308-.867.247-1.243 1.233" fill="#1976D2" fill-rule="evenodd"/><path fill-opacity=".677" d="M35 1.098c-7.01 1.369-16.582 6.579-21.952 11.95C7.342 18.753 2.431 28.143.969 36.142c-.672 3.681-.933 36.882-.75 95.5L.5 221.5l2.273 5.619c4.945 12.225 13.809 21.052 26.25 26.141l5.477 2.24 89.858.281c58.618.183 91.819-.078 95.5-.75 7.999-1.462 17.389-6.373 23.094-12.079 5.48-5.479 10.922-15.593 11.762-21.859.306-2.278.945-4.382 1.421-4.676.476-.295.865-40.536.865-89.535 0-50.299-.379-88.766-.871-88.462-.479.296-1.118-1.305-1.421-3.558-.835-6.225-6.291-16.35-11.756-21.814-5.621-5.622-15.038-10.587-22.838-12.043C213.396-.248 41.453-.162 35 1.098M158.604 19.75C149.463 49.913 141.62 82 143.388 82c.213 0 3.408-1.413 7.099-3.141 10.877-5.089 23.002-5.052 33.676.106 2.11 1.019 3.841 1.557 3.845 1.194.017-1.367-27.539-62.092-28.191-62.125-.375-.019-.921.754-1.213 1.716m-83.62 10.797c-.024 3.041 8.228 65.892 8.725 66.445.242.27.941-.405 1.552-1.5 2.25-4.037 10.856-12.238 15.478-14.751 2.619-1.425 7.004-3.154 9.744-3.843 4.726-1.188 8.411-4.03 8.484-6.543.018-.63-8.18-8.698-18.217-17.929-10.037-9.23-19.937-18.369-22-20.307-3.192-3-3.752-3.234-3.766-1.572M.479 128c0 49.225.122 69.362.271 44.75.149-24.613.149-64.888 0-89.5C.601 58.637.479 78.775.479 128m117.78-53.707c-10.583 15.432-19.086 28.213-18.896 28.403.19.19 2.755-.171 5.699-.803 12.129-2.601 26.234 1.22 35.335 9.57 2.143 1.967 4.019 3.454 4.169 3.305.448-.449-6.025-67.564-6.566-68.067-.275-.256-9.159 12.161-19.741 27.592M42.383 72c.32 3.025 1.509 17.425 2.643 32 1.133 14.575 2.392 27.838 2.797 29.474l.737 2.974 2.301-3.724c3.052-4.937 9.427-10.048 16.709-13.396 4.975-2.286 7.338-2.734 14.674-2.777 4.809-.028 8.746-.279 8.75-.559.003-.279-11.064-11.529-24.594-25L41.801 66.5l.582 5.5M184 97.819c-11.825 14.458-21.632 26.659-21.793 27.113-.161.454 1.864.406 4.5-.107 11.869-2.309 26.924 2.712 35.266 11.761 2.314 2.511 4.427 4.348 4.693 4.081.267-.267.114-15.931-.34-34.81l-.826-34.325L184 97.819m-23.25-21.125c-2.194.35-2.75.972-2.75 3.078 0 3.247 2.981 41.392 3.329 42.598.138.479 2.838-2.331 5.999-6.243l5.748-7.114-1.288-16.257L170.5 76.5l-3.5-.123c-1.925-.067-4.738.075-6.25.317m-59 4.998c-2.612 1.455-4.75 2.962-4.75 3.35 0 .388 1.17 2.799 2.599 5.356l2.599 4.651 4.021-5.615c3.509-4.901 3.881-5.92 2.922-8.024-1.357-2.979-1.545-2.972-7.391.282M145 83.5c-1.085 1.308-.396 1.5 5.378 1.5 5.22 0 6.622-.318 6.622-1.5 0-1.147-1.264-1.5-5.378-1.5-3.56 0-5.798.507-6.622 1.5M78.672 95.561c-1.646 3.452-1.651 3.805-.081 5.539.922 1.019 2.066 1.612 2.543 1.317 1.023-.632 1.03-6.143.011-8.729-.597-1.515-1.004-1.207-2.473 1.873m95.05 1.689c.682 8.357 1.612 9.647 4.091 5.679 1.119-1.792.943-2.67-1.302-6.5-1.427-2.436-2.735-4.429-2.906-4.429-.171 0-.119 2.362.117 5.25m-65.929 5.431c-1.533.403-1.435 1.004.958 5.884 1.466 2.989 2.945 5.435 3.286 5.435.569 0 2.963-8.947 2.963-11.076 0-.933-4.062-1.07-7.207-.243m8.706.586c-.234.678-1.596 5.958-3.025 11.733-1.43 5.775-3.246 12.75-4.035 15.5l-1.436 5H81.035l-3.768-8.241c-2.072-4.532-4.317-8.245-4.99-8.25-1.867-.014-10.277 4.274-10.277 5.24 0 .468.618 2.065 1.373 3.551 2.739 5.385 2.938 7.2.788 7.2-1.444 0-1.841-.508-1.479-1.892.272-1.041-.143-3.109-.922-4.597l-1.417-2.704-4.172 7.021L52 139.85V229h26v3.577c0 5.001 4.458 9.423 9.5 9.423s9.5-4.422 9.5-9.423V229h61v3.577c0 5.001 4.458 9.423 9.5 9.423s9.5-4.422 9.5-9.423V229h26v-89.844l-4.2-3.595c-3.989-3.415-6.596-4.141-6.05-1.686.138.619-.249 1.125-.858 1.125-.665 0-.872-.943-.518-2.356.501-1.992.016-2.609-3.141-4-6.808-3-8.331-2.678-9.956 2.106-1.668 4.91-3.277 5.564-3.277 1.332 0-4.956-.902-6.083-4.857-6.068-6.903.026-8.143.802-8.143 5.103V135h-25.015l-4.215-8.5c-2.319-4.675-4.481-8.5-4.805-8.5-.325 0-1.657 4.139-2.961 9.198-1.305 5.059-2.541 8.692-2.747 8.073-.207-.62 1.226-7.32 3.184-14.89 1.957-7.569 3.559-14.069 3.559-14.442 0-.374-2.138-1.232-4.75-1.907s-5.33-1.401-6.038-1.613c-.708-.212-1.479.17-1.713.848" fill="#1976D2" fill-rule="evenodd"/></svg>