<svg width="24" height="24" version="1.1" viewBox="0 0 24 24" xmlns="http://www.w3.org/2000/svg">
 <path id="taskyon" d="m12 2.1c-1.3 0-2.3 1.1-2.3 2.3-2.8e-5 0.88 0.49 1.6 1.2 2l-0.02 4.1-3.8-1.5 0.012-0.73c0.7-0.41 1.2-1.2 1.2-2 0-1.3-1.1-2.3-2.3-2.3s-2.3 1.1-2.3 2.3c0 0.88 0.49 1.6 1.2 2l-0.023 1.5a1.1 1.1 0 0 0 0.72 1.1l5.4 2.2-0.0055 1.2a1.1 1.1 0 0 0 0 0.0055v0.72l-5.4-1.8c-0.24-1-1.2-1.8-2.3-1.8-1.3 0-2.3 1.1-2.3 2.3 0 1.3 1.1 2.3 2.3 2.3 0.63 0 1.2-0.25 1.6-0.66l6.1 2v2.2h-3.7a1.1 1.1 0 0 0-1.1 1.1 1.1 1.1 0 0 0 1.1 1.1h9.7a1.1 1.1 0 0 0 1.1-1.1 1.1 1.1 0 0 0-1.1-1.1h-3.7v-2.3l6.1-2.2c0.42 0.43 1 0.69 1.7 0.69 1.3 0 2.3-1.1 2.3-2.3 0-1.3-1.1-2.3-2.3-2.3-1.1 0-2 0.76-2.3 1.8l-5.4 1.9v-0.67l0.0055-1.1 5.6-1.9a1.1 1.1 0 0 0 0.77-1.1l0.038-1.8c0.69-0.41 1.2-1.2 1.2-2 0-1.3-1.1-2.3-2.3-2.3-1.3 0-2.3 1.1-2.3 2.3 0 0.88 0.5 1.7 1.2 2.1l-0.019 0.89-4.1 1.4 0.021-4.2c0.7-0.41 1.2-1.2 1.2-2 0-1.3-1.1-2.3-2.3-2.3zm0 1.5c0.46 0 0.81 0.35 0.81 0.81 4.2e-5 0.46-0.36 0.81-0.81 0.81s-0.81-0.35-0.81-0.81c0-0.46 0.35-0.81 0.81-0.81zm-6.1 1.9c0.46 0 0.81 0.35 0.81 0.81 0 0.46-0.35 0.81-0.81 0.81-0.46 0-0.81-0.35-0.81-0.81 0-0.46 0.35-0.81 0.81-0.81zm13 0c0.46 0 0.81 0.35 0.81 0.81 0 0.46-0.35 0.81-0.81 0.81-0.46 0-0.81-0.35-0.81-0.81 0-0.46 0.35-0.81 0.81-0.81zm2.4 7.2c0.46 0 0.81 0.35 0.81 0.81 0 0.46-0.35 0.81-0.81 0.81-0.46 0-0.81-0.35-0.81-0.81 0-0.46 0.36-0.81 0.81-0.81zm-18 0.16c0.46 0 0.81 0.35 0.81 0.81 0 0.46-0.36 0.81-0.81 0.81-0.46 0-0.81-0.35-0.81-0.81 0-0.46 0.35-0.81 0.81-0.81z"/>
</svg>
