<svg width="24" height="24" version="1.1" viewBox="0 0 24 24" xmlns="http://www.w3.org/2000/svg">
 <g id="xyntopia" transform="translate(0 -280)">
  <path d="m9.64 283a0.804 0.804 0 0 0-0.402 0.107l-3.76 2.17a0.804 0.804 0 0 0-0.402 0.696v4.35a0.804 0.804 0 0 0 0.402 0.696l3.55 2.05 0.666-0.666a0.605 0.605 0 0 0 0.0954-0.73l-2.49-4.32a0.466 0.466 0 0 1 0.169-0.634l2.02-1.18a0.462 0.462 0 0 1 0.63 0.167l2.06 3.57a0.356 0.356 0 0 0 0.561 0.0755l1.47-1.47v-1.92a0.804 0.804 0 0 0-0.402-0.696l-3.76-2.17a0.804 0.804 0 0 0-0.402-0.107zm9.69 0a0.804 0.804 0 0 0-0.402 0.107l-3.76 2.17a0.804 0.804 0 0 0-0.402 0.696v1.36l1.19-1.19a1.12 1.12 0 0 1 0.793-0.328h3.69a0.192 0.192 0 0 1 0.135 0.328l-5.06 5.06 3.43 1.98a0.804 0.804 0 0 0 0.803 0l3.76-2.17a0.804 0.804 0 0 0 0.402-0.696v-4.35a0.804 0.804 0 0 0-0.402-0.696l-3.76-2.17a0.804 0.804 0 0 0-0.402-0.107zm-9.61 2.95a0.372 0.372 0 0 0-0.372 0.37 0.372 0.372 0 0 0 0.33 0.368l2.05 3.56a0.218 0.218 0 0 0 0.185 0.109l0.956 0.0119a0.218 0.218 0 0 0 0.157-0.0656l3.39-3.39a0.372 0.372 0 0 0 0.0418 4e-3 0.372 0.372 0 0 0 0.372-0.372 0.372 0.372 0 0 0-0.372-0.372 0.372 0.372 0 0 0-0.372 0.372 0.372 0.372 0 0 0 0.0079 0.0755l-3.31 3.31-0.74-8e-3 -1.99-3.44a0.372 0.372 0 0 1 0.0021-2e-3 0.372 0.372 0 0 0 0.0338-0.155 0.372 0.372 0 0 0-0.372-0.37zm9.53 0.169a0.372 0.372 0 0 0-0.372 0.372 0.372 0.372 0 0 0 0.0139 0.0995l-5.51 5.52a0.218 0.218 0 0 0-0.0636 0.155l4e-3 0.68a0.218 0.218 0 0 0 0.0278 0.107l0.879 1.52c0.185 0.0287 0.369 0.0586 0.551 0.0855l-1.02-1.77-6e-3 -0.531 5.49-5.49a0.372 0.372 0 0 0 0.0139 2e-3 0.372 0.372 0 0 0 0.372-0.372 0.372 0.372 0 0 0-0.372-0.372zm-11.2 0.787a0.372 0.372 0 0 0-0.372 0.372 0.372 0.372 0 0 0 0.32 0.368l2.4 4.16-6e-3 0.543-1.26 1.26c0.168 0.0371 0.334 0.0748 0.505 0.111l1.12-1.12a0.218 0.218 0 0 0 0.0636-0.153l0.0079-0.69a0.218 0.218 0 0 0-0.0298-0.111l-2.42-4.2a0.372 0.372 0 0 0 0.0378-0.163 0.372 0.372 0 0 0-0.372-0.372zm1.15 0.123a0.372 0.372 0 0 0-0.372 0.37 0.372 0.372 0 0 0 0.328 0.37l2.08 3.6h2.14l3.49-3.49a0.372 0.372 0 0 0 0.0318 2e-3 0.372 0.372 0 0 0 0.372-0.372 0.372 0.372 0 0 0-0.0021-0.0317l0.0119-0.0119-0.0159-0.0159a0.372 0.372 0 0 0-0.366-0.312 0.372 0.372 0 0 0-0.372 0.372 0.372 0.372 0 0 0 0.01 0.0835l-3.33 3.34h-1.71l-1.95-3.37a0.372 0.372 0 0 0 0.0358-0.159 0.372 0.372 0 0 0-0.372-0.37zm-6.9 3.54a12 1.72 10.6 0 0-2.17 0.555 12 1.72 10.6 0 0 11.4 3.88 12 1.72 10.6 0 0 12.2 0.527 12 1.72 10.6 0 0-1.75-1.29 11.3 1.48 10.6 0 1 1.12 0.911 11.3 1.48 10.6 0 1-11.4-0.63 11.3 1.48 10.6 0 1-10.8-3.52 11.3 1.48 10.6 0 1 1.42-0.431zm2.53 0.819a0.804 0.804 0 0 0-0.402 0.107l-0.976 0.565c0.182 0.0639 0.367 0.128 0.567 0.193 1.24 0.407 2.83 0.835 4.62 1.24l0.0199-0.0198-3.42-1.98a0.804 0.804 0 0 0-0.402-0.107zm10.3 0.229-0.666 0.666a0.605 0.605 0 0 0-0.0954 0.73l0.99 1.72c1.38 0.194 2.64 0.329 3.73 0.406v-0.769a0.804 0.804 0 0 0-0.404-0.696zm-13.1 1.27-1.35 0.781a0.804 0.804 0 0 0-0.402 0.696v4.34a0.804 0.804 0 0 0 0.402 0.696l3.76 2.17a0.804 0.804 0 0 0 0.803 0l3.76-2.17a0.804 0.804 0 0 0 0.402-0.696v-1.36l-1.19 1.19a1.12 1.12 0 0 1-0.793 0.328h-3.69a0.192 0.192 0 0 1-0.135-0.328l3.99-3.99c-1.68-0.402-3.17-0.824-4.38-1.24-0.43-0.146-0.815-0.291-1.17-0.433zm8.73 0.412-0.535 0.535c0.169 0.0349 0.339 0.0711 0.511 0.105l0.205-0.205h1.71l0.362 0.626c0.187 0.0321 0.37 0.0613 0.555 0.0915l-0.666-1.15zm-2.68 1.38-3.19 3.19a0.372 0.372 0 0 0-0.0179 0 0.372 0.372 0 0 0-0.372 0.372 0.372 0.372 0 0 0 0.372 0.372 0.372 0.372 0 0 0 0.372-0.372 0.372 0.372 0 0 0-0.0119-0.0953l3.35-3.35c-0.168-0.0381-0.338-0.0752-0.503-0.113zm1.06 0.239-2.09 2.09a0.372 0.372 0 0 0-0.0239 0 0.372 0.372 0 0 0-0.372 0.372 0.372 0.372 0 0 0 0.372 0.37 0.372 0.372 0 0 0 0.372-0.37 0.372 0.372 0 0 0-0.0119-0.0935l2.26-2.26c-0.169-0.0357-0.341-0.0714-0.507-0.107zm1.21 0.254-2.73 2.72a0.372 0.372 0 0 0-0.348 0.37 0.372 0.372 0 0 0 0.372 0.372 0.372 0.372 0 0 0 0.372-0.372 0.372 0.372 0 0 0-0.0219-0.125l2.87-2.87c-0.172-0.0333-0.345-0.0653-0.515-0.0995zm1.03 0.199v2e-3l-1.43 1.43v1.91a0.804 0.804 0 0 0 0.402 0.696l3.76 2.17a0.804 0.804 0 0 0 0.805 0l3.76-2.17a0.804 0.804 0 0 0 0.404-0.696v-2.3c-0.886-0.0602-1.87-0.157-2.92-0.288l0.614 1.07a0.459 0.459 0 0 1-0.171 0.63l-2.04 1.14a0.469 0.469 0 0 1-0.636-0.175l-1.91-3.3c-0.189-0.0339-0.376-0.0658-0.567-0.101-0.0283-5e-3 -0.0554-0.0106-0.0835-0.0179zm1.21 0.221 1.44 2.49a0.372 0.372 0 0 0-0.0358 0.159 0.372 0.372 0 0 0 0.372 0.372 0.372 0.372 0 0 0 0.37-0.372 0.372 0.372 0 0 0-0.326-0.37l-1.26-2.19c-0.185-0.0311-0.367-0.059-0.555-0.0914zm1.24 0.205 0.771 1.34a0.372 0.372 0 0 0-0.0437 0.175 0.372 0.372 0 0 0 0.372 0.372 0.372 0.372 0 0 0 0.372-0.372 0.372 0.372 0 0 0-0.308-0.366l-0.614-1.06c-0.183-0.0274-0.363-0.0541-0.549-0.0835zm1.24 0.185 0.74 1.28a0.372 0.372 0 0 0-0.0318 0.151 0.372 0.372 0 0 0 0.37 0.372 0.372 0.372 0 0 0 0.372-0.372 0.372 0.372 0 0 0-0.334-0.37l-0.571-0.99c-0.181-0.0241-0.36-0.0478-0.545-0.0736z" style="paint-order:normal"/>
 </g>
</svg>
