<?xml version="1.0" encoding="UTF-8" standalone="no"?>
<!-- Created with Inkscape (http://www.inkscape.org/) -->

<svg
   width="24"
   height="24"
   viewBox="0 0 24 24"
   version="1.1"
   id="svg103864"
   inkscape:version="1.2.2 (b0a8486541, 2022-12-01)"
   sodipodi:docname="taskyon_mono.svg"
   inkscape:export-filename="taskyon256.png"
   inkscape:export-xdpi="384"
   inkscape:export-ydpi="384"
   xmlns:inkscape="http://www.inkscape.org/namespaces/inkscape"
   xmlns:sodipodi="http://sodipodi.sourceforge.net/DTD/sodipodi-0.dtd"
   xmlns="http://www.w3.org/2000/svg"
   xmlns:svg="http://www.w3.org/2000/svg">
  <sodipodi:namedview
     id="namedview103866"
     pagecolor="#ffffff"
     bordercolor="#666666"
     borderopacity="1.0"
     inkscape:showpageshadow="2"
     inkscape:pageopacity="0.0"
     inkscape:pagecheckerboard="0"
     inkscape:deskcolor="#d1d1d1"
     inkscape:document-units="mm"
     showgrid="false"
     inkscape:zoom="16.980474"
     inkscape:cx="12.07269"
     inkscape:cy="10.747639"
     inkscape:window-width="1856"
     inkscape:window-height="1044"
     inkscape:window-x="64"
     inkscape:window-y="0"
     inkscape:window-maximized="1"
     inkscape:current-layer="layer1" />
  <defs
     id="defs103861" />
  <g
     inkscape:label="Layer 1"
     inkscape:groupmode="layer"
     id="layer1">
    <path
       id="taskyon"
       style="color:#000000"
       d="m 12,2.0803939 c -1.282488,0 -2.3384048,1.0559172 -2.3384048,2.3384052 -2.76e-5,0.8762987 0.4928298,1.6465979 1.2143548,2.0468965 L 10.85615,10.612562 7.0221808,9.0805582 7.0340608,8.3478267 C 7.731356,7.9412174 8.2040525,7.1838826 8.2040525,6.3254864 c 0,-1.2824881 -1.0559168,-2.338405 -2.3384049,-2.338405 -1.2824881,0 -2.3384052,1.0559169 -2.3384052,2.338405 0,0.8775556 0.4943178,1.6496936 1.2175232,2.049273 l -0.022972,1.4575431 a 1.144504,1.144504 0 0 0 0.7192655,1.0804815 l 5.4024119,2.160173 -0.0055,1.175541 a 1.144504,1.144504 0 0 0 0,0.0055 v 0.722429 L 5.446604,13.200492 c -0.2365082,-1.03949 -1.1747384,-1.825888 -2.2813708,-1.825888 -1.282488,0 -2.33840507,1.055917 -2.33840507,2.338405 0,1.282487 1.05591707,2.338404 2.33840507,2.338404 0.6263633,0 1.1989542,-0.251838 1.6207239,-0.659062 l 6.0519699,1.994615 v 2.24414 H 7.1829807 a 1.1443895,1.1443895 0 0 0 -1.1446461,1.143855 1.1443895,1.1443895 0 0 0 1.1446461,1.144645 h 9.6752303 a 1.1443895,1.1443895 0 0 0 1.144647,-1.144645 1.1443895,1.1443895 0 0 0 -1.144647,-1.143855 h -3.731784 v -2.274241 l 6.053554,-2.16255 c 0.42479,0.427203 1.011931,0.693918 1.655579,0.693918 1.282488,0 2.337612,-1.05671 2.337612,-2.339197 0,-1.282489 -1.055124,-2.338407 -2.337612,-2.338407 -1.087475,0 -2.012563,0.759314 -2.268696,1.772024 l -5.440437,1.943918 v -0.66936 l 0.0055,-1.141477 5.628175,-1.938375 a 1.144504,1.144504 0 0 0 0.770755,-1.057509 l 0.03803,-1.7815291 c 0.68911,-0.4087168 1.155736,-1.1607492 1.155736,-2.0128345 0,-1.2824881 -1.055959,-2.338405 -2.338405,-2.338405 -1.28249,0 -2.338406,1.0559169 -2.338406,2.338405 0,0.8829704 0.500721,1.6589831 1.23099,2.0564023 l -0.01902,0.891953 -4.115974,1.4179353 0.02138,-4.2490534 C 13.864624,6.0363607 14.339225,5.2785775 14.339197,4.4187991 14.339197,3.1363111 13.282489,2.0803939 12,2.0803939 Z m 0,1.5256668 c 0.457837,0 0.81353,0.354861 0.81353,0.8127384 4.2e-5,0.4578367 -0.355653,0.8127383 -0.81353,0.8127383 -0.457877,0 -0.81278,-0.3549016 -0.812738,-0.8127383 0,-0.4578774 0.354902,-0.8127384 0.812738,-0.8127384 z M 5.8656476,5.512748 c 0.4578775,0 0.8127383,0.3548609 0.8127383,0.8127384 0,0.4578367 -0.3548608,0.8127383 -0.8127383,0.8127383 -0.4578367,0 -0.8127384,-0.3549016 -0.8127384,-0.8127383 0,-0.4578775 0.3549017,-0.8127384 0.8127384,-0.8127384 z m 12.5206074,0 c 0.457835,0 0.812739,0.3548609 0.812739,0.8127384 0,0.4578367 -0.354904,0.8127383 -0.812739,0.8127383 -0.457878,0 -0.812739,-0.3549016 -0.812739,-0.8127383 0,-0.4578775 0.354861,-0.8127384 0.812739,-0.8127384 z m 2.449305,7.22434 c 0.457837,0 0.811946,0.35411 0.811946,0.811948 0,0.457877 -0.354109,0.812738 -0.811946,0.812738 -0.457879,0 -0.81353,-0.354861 -0.81353,-0.812738 0,-0.457838 0.355651,-0.811948 0.81353,-0.811948 z M 3.1652332,12.900271 c 0.4578368,0 0.8135305,0.354861 0.8135305,0.812738 0,0.457837 -0.3556937,0.812738 -0.8135305,0.812738 -0.4578367,0 -0.8127383,-0.354901 -0.8127383,-0.812738 0,-0.457877 0.3549016,-0.812738 0.8127383,-0.812738 z" />
  </g>
</svg>
