<?xml version="1.0" encoding="UTF-8" standalone="no"?>
<!-- Created with Inkscape (http://www.inkscape.org/) -->

<svg
   width="64"
   height="64"
   viewBox="0 0 16.933333 16.933333"
   version="1.1"
   id="svg18439"
   inkscape:version="1.1.2 (1:1.1+202202050950+0a00cf5339)"
   sodipodi:docname="xyntopia_mono.svg"
   inkscape:export-filename="/home/tom/Dropbox/company/brand/xyntopia_mono.png"
   inkscape:export-xdpi="3072"
   inkscape:export-ydpi="3072"
   xmlns:inkscape="http://www.inkscape.org/namespaces/inkscape"
   xmlns:sodipodi="http://sodipodi.sourceforge.net/DTD/sodipodi-0.dtd"
   xmlns="http://www.w3.org/2000/svg"
   xmlns:svg="http://www.w3.org/2000/svg"
   xmlns:rdf="http://www.w3.org/1999/02/22-rdf-syntax-ns#"
   xmlns:cc="http://creativecommons.org/ns#"
   xmlns:dc="http://purl.org/dc/elements/1.1/">
  <defs
     id="defs18433" />
  <sodipodi:namedview
     id="base"
     pagecolor="#ffffff"
     bordercolor="#666666"
     borderopacity="1.0"
     inkscape:pageopacity="0.0"
     inkscape:pageshadow="2"
     inkscape:zoom="8.9403391"
     inkscape:cx="24.831273"
     inkscape:cy="26.844619"
     inkscape:document-units="mm"
     inkscape:current-layer="layer1"
     showgrid="false"
     inkscape:window-width="1856"
     inkscape:window-height="1043"
     inkscape:window-x="64"
     inkscape:window-y="0"
     inkscape:window-maximized="1"
     units="px"
     width="64px"
     inkscape:pagecheckerboard="0" />
  <metadata
     id="metadata18436">
    <rdf:RDF>
      <cc:Work
         rdf:about="">
        <dc:format>image/svg+xml</dc:format>
        <dc:type
           rdf:resource="http://purl.org/dc/dcmitype/StillImage" />
      </cc:Work>
    </rdf:RDF>
  </metadata>
  <g
     inkscape:label="Layer 1"
     inkscape:groupmode="layer"
     id="layer1"
     transform="translate(0,-280.06667)">
    <g
       id="g23923"
       transform="matrix(0.28222223,0,0,0.28222223,-618.92106,-155.24618)"
       style="display:inline;fill:#000000;fill-opacity:1;stroke:none">
      <path
         id="path23893"
         style="fill:#000000;fill-opacity:1;stroke:none;stroke-width:0.281249;stroke-linecap:butt;stroke-linejoin:miter;stroke-miterlimit:4;stroke-dasharray:none;stroke-dashoffset:1;stroke-opacity:1;paint-order:normal"
         inkscape:transform-center-x="-0.0001989482"
         inkscape:transform-center-y="0.00010647898"
         d="m 2217.9488,1552.3121 a 1.7321888,1.7321888 0 0 0 -0.8662,0.2308 l -8.1097,4.6819 a 1.7319774,1.7319774 0 0 0 -0.8661,1.4997 v 9.3659 a 1.7319774,1.7319774 0 0 0 0.8661,1.4996 l 7.6575,4.4201 1.4355,-1.4355 a 1.3032255,1.3032255 0 0 0 0.207,-1.5728 l -5.3687,-9.3 a 1.0047562,1.0047562 0 0 1 0.3644,-1.3696 l 4.345,-2.5361 a 0.99523481,0.99523481 0 0 1 1.3624,0.3608 l 4.4439,7.6977 a 0.76730186,0.76730186 0 0 0 1.2085,0.1593 l 3.1622,-3.1622 v -4.1272 a 1.7319862,1.7319862 0 0 0 -0.866,-1.4997 l -8.1098,-4.6819 a 1.7321888,1.7321888 0 0 0 -0.866,-0.2308 z m 20.8757,0 a 1.7321799,1.7321799 0 0 0 -0.866,0.2308 l -8.1098,4.6819 a 1.7319862,1.7319862 0 0 0 -0.866,1.4997 v 2.9334 l 2.5561,-2.5562 a 2.4142135,2.4142135 0 0 1 1.7084,-0.7068 h 7.9412 a 0.41425161,0.41425161 0 0 1 0.293,0.7068 l -10.9057,10.9076 7.3828,4.2626 a 1.7321799,1.7321799 0 0 0 1.7322,0 l 8.1097,-4.6819 a 1.7319862,1.7319862 0 0 0 0.8661,-1.4996 v -9.3659 a 1.7319862,1.7319862 0 0 0 -0.8661,-1.4997 l -8.1097,-4.6819 a 1.7321799,1.7321799 0 0 0 -0.8662,-0.2308 z m -31.3128,18.0799 a 1.7320608,1.7320608 0 0 0 -0.8661,0.2307 l -2.1021,1.214 c 0.3917,0.138 0.7914,0.2768 1.2214,0.4175 2.6817,0.8771 6.0965,1.7983 9.9481,2.6733 l 0.044,-0.044 -7.3792,-4.2609 a 1.7320608,1.7320608 0 0 0 -0.8661,-0.2307 z m 22.1906,0.4907 -1.4337,1.4356 a 1.3033289,1.3033289 0 0 0 -0.2069,1.5728 l 2.1349,3.6969 c 2.9763,0.4179 5.6949,0.7111 8.031,0.8752 v -1.6589 a 1.731971,1.731971 0 0 0 -0.866,-1.4996 z m -28.2514,2.7393 -2.915,1.6827 a 1.7319622,1.7319622 0 0 0 -0.8661,1.4996 v 9.3641 a 1.7319774,1.7319774 0 0 0 0.8661,1.4996 l 8.1097,4.6819 a 1.7320303,1.7320303 0 0 0 1.7322,0 l 8.1079,-4.6819 a 1.7321447,1.7321447 0 0 0 0.8661,-1.4996 v -2.9334 l -2.5782,2.5781 a 2.4142135,2.4142135 0 0 1 -1.7083,0.7068 h -7.9431 a 0.41421356,0.41421356 0 0 1 -0.293,-0.7068 l 8.5931,-8.5931 c -3.612,-0.8656 -6.8362,-1.7748 -9.4482,-2.6642 -0.9258,-0.3153 -1.7551,-0.6261 -2.5232,-0.9338 z m 20.1672,5.3448 -3.0724,3.0725 v 4.1291 a 1.7321447,1.7321447 0 0 0 0.866,1.4996 l 8.1079,4.6819 a 1.7320215,1.7320215 0 0 0 1.7322,0 l 8.1098,-4.6819 a 1.7319862,1.7319862 0 0 0 0.866,-1.4996 v -4.9567 c -1.9098,-0.1296 -4.0286,-0.3371 -6.297,-0.6189 l 1.3258,2.2961 a 0.98862647,0.98862647 0 0 1 -0.3718,1.3568 l -4.3872,2.4646 a 1.0114927,1.0114927 0 0 1 -1.3715,-0.3754 l -4.107,-7.1136 c -0.4073,-0.073 -0.8099,-0.1427 -1.2213,-0.2197 -0.061,-0.011 -0.1189,-0.023 -0.1795,-0.035 z" />
      <path
         id="path23895"
         style="color:#000000;fill:#000000;fill-opacity:1;stroke:none;stroke-width:1;stroke-linejoin:round;-inkscape-stroke:none"
         d="m 2218.4944,1559.1969 -0.8112,0.4688 4.7662,8.258 a 0.46879688,0.46879688 0 0 0 0.3992,0.2343 l 2.0618,0.025 a 0.46879688,0.46879688 0 0 0 0.3369,-0.1392 l 7.9138,-7.9138 -0.6628,-0.6629 -7.7747,7.7728 -1.5949,-0.016 z m 19.9676,0.271 -12.4622,12.4658 a 0.46879688,0.46879688 0 0 0 -0.1372,0.3351 l 0.011,1.4631 a 0.46879688,0.46879688 0 0 0 0.06,0.2307 l 1.8915,3.2757 c 0.3991,0.062 0.7967,0.1233 1.1884,0.1813 l -2.2046,-3.8178 -0.01,-1.1426 12.3211,-12.3284 z m -21.3812,1.6717 -0.8112,0.4688 5.0409,8.7341 h 4.618 l 8.4027,-8.4027 -0.6629,-0.6628 -8.128,8.128 h -3.6896 z m -2.2724,0.1081 -0.8111,0.4688 5.5261,9.5708 -0.015,1.1701 -2.7118,2.7118 c 0.3617,0.08 0.721,0.1594 1.0894,0.2381 l 2.4208,-2.4208 a 0.46879688,0.46879688 0 0 0 0.1373,-0.3277 l 0.016,-1.4887 a 0.46879688,0.46879688 0 0 0 -0.062,-0.2398 z m 5.4529,13.2605 -1.1535,1.1536 c 0.3652,0.075 0.7277,0.1512 1.0986,0.2252 l 0.4413,-0.4413 h 3.6896 l 0.78,1.3494 c 0.4035,0.069 0.7998,0.1343 1.1975,0.1996 l -1.4356,-2.4865 z m -5.7697,2.9663 -7.3077,7.3059 0.6647,0.6647 7.7271,-7.7271 c -0.3621,-0.082 -0.7288,-0.1611 -1.0841,-0.2435 z m 2.2889,0.5145 -4.9218,4.9219 0.6628,0.661 5.3522,-5.3521 c -0.3641,-0.077 -0.7349,-0.153 -1.0932,-0.2308 z m 2.6166,0.5457 -6.2457,6.2457 0.6628,0.6647 6.6925,-6.6943 c -0.3702,-0.072 -0.7443,-0.1426 -1.1096,-0.2161 z m 4.8339,0.9046 3.4058,5.9069 0.8112,-0.4688 -3.0213,-5.2386 c -0.3984,-0.067 -0.7922,-0.1297 -1.1957,-0.1995 z m 2.6679,0.4412 2.21,3.8287 0.8113,-0.4688 -1.8366,-3.1804 c -0.3949,-0.059 -0.7836,-0.1164 -1.1847,-0.1795 z m 2.6843,0.401 1.9171,3.3197 0.813,-0.4688 -1.5563,-2.6953 c -0.3902,-0.052 -0.7757,-0.1 -1.1738,-0.1556 z" />
      <ellipse
         style="display:inline;fill:#000000;fill-opacity:1;stroke:none;stroke-width:0.937503;stroke-linecap:butt;stroke-linejoin:round;stroke-miterlimit:4;stroke-dasharray:none;stroke-dashoffset:1;stroke-opacity:1;paint-order:normal"
         id="ellipse23897"
         cx="2232.6499"
         cy="1559.9358"
         rx="0.80062503"
         ry="0.80097389" />
      <circle
         style="display:inline;fill:#000000;fill-opacity:1;stroke:none;stroke-width:0.937504;stroke-linecap:butt;stroke-linejoin:round;stroke-miterlimit:4;stroke-dasharray:none;stroke-dashoffset:1;stroke-opacity:1;paint-order:normal"
         id="circle23899"
         cx="2233.5073"
         cy="1562.0355"
         r="0.80095315" />
      <circle
         style="font-variation-settings:normal;display:inline;vector-effect:none;fill:#000000;fill-opacity:1;stroke:none;stroke-width:0.937504;stroke-linecap:butt;stroke-linejoin:round;stroke-miterlimit:4;stroke-dasharray:none;stroke-dashoffset:1;stroke-opacity:1;-inkscape-stroke:none;paint-order:normal;stop-color:#000000"
         id="circle23901"
         cx="2238.6548"
         cy="1559.8346"
         r="0.80095315" />
      <circle
         style="font-variation-settings:normal;display:inline;vector-effect:none;fill:#000000;fill-opacity:1;stroke:none;stroke-width:0.937504;stroke-linecap:butt;stroke-linejoin:round;stroke-miterlimit:4;stroke-dasharray:none;stroke-dashoffset:1;stroke-opacity:1;-inkscape-stroke:none;paint-order:normal;stop-color:#000000"
         id="circle23903"
         cx="2231.9072"
         cy="1583.3701"
         r="0.80095315" />
      <circle
         style="font-variation-settings:normal;display:inline;vector-effect:none;fill:#000000;fill-opacity:1;stroke:none;stroke-width:0.937504;stroke-linecap:butt;stroke-linejoin:round;stroke-miterlimit:4;stroke-dasharray:none;stroke-dashoffset:1;stroke-opacity:1;-inkscape-stroke:none;paint-order:normal;stop-color:#000000"
         id="circle23905"
         cx="2229.2717"
         cy="1583.1417"
         r="0.80095315" />
      <circle
         style="font-variation-settings:normal;display:inline;vector-effect:none;fill:#000000;fill-opacity:1;stroke:none;stroke-width:0.937504;stroke-linecap:butt;stroke-linejoin:round;stroke-miterlimit:4;stroke-dasharray:none;stroke-dashoffset:1;stroke-opacity:1;-inkscape-stroke:none;paint-order:normal;stop-color:#000000"
         id="circle23907"
         cx="2228.0471"
         cy="1585.1409"
         r="0.80095315" />
      <circle
         style="font-variation-settings:normal;display:inline;vector-effect:none;fill:#000000;fill-opacity:1;stroke:none;stroke-width:0.937504;stroke-linecap:butt;stroke-linejoin:round;stroke-miterlimit:4;stroke-dasharray:none;stroke-dashoffset:1;stroke-opacity:1;-inkscape-stroke:none;paint-order:normal;stop-color:#000000"
         id="circle23909"
         cx="2213.5742"
         cy="1585.2012"
         r="0.80095315" />
      <circle
         style="font-variation-settings:normal;display:inline;vector-effect:none;fill:#000000;fill-opacity:1;stroke:none;stroke-width:0.937504;stroke-linecap:butt;stroke-linejoin:round;stroke-miterlimit:4;stroke-dasharray:none;stroke-dashoffset:1;stroke-opacity:1;-inkscape-stroke:none;paint-order:normal;stop-color:#000000"
         id="circle23911"
         cx="2212.2197"
         cy="1583.2939"
         r="0.80095315" />
      <circle
         style="font-variation-settings:normal;display:inline;vector-effect:none;fill:#000000;fill-opacity:1;stroke:none;stroke-width:0.937504;stroke-linecap:butt;stroke-linejoin:round;stroke-miterlimit:4;stroke-dasharray:none;stroke-dashoffset:1;stroke-opacity:1;-inkscape-stroke:none;paint-order:normal;stop-color:#000000"
         id="circle23913"
         cx="2207.5762"
         cy="1585.146"
         r="0.80095315" />
      <circle
         style="font-variation-settings:normal;display:inline;vector-effect:none;fill:#000000;fill-opacity:1;stroke:none;stroke-width:0.937504;stroke-linecap:butt;stroke-linejoin:round;stroke-miterlimit:4;stroke-dasharray:none;stroke-dashoffset:1;stroke-opacity:1;-inkscape-stroke:none;paint-order:normal;stop-color:#000000"
         id="circle23915"
         cx="2214.4563"
         cy="1561.5312"
         r="0.80095315" />
      <circle
         style="font-variation-settings:normal;display:inline;vector-effect:none;fill:#000000;fill-opacity:1;stroke:none;stroke-width:0.937504;stroke-linecap:butt;stroke-linejoin:round;stroke-miterlimit:4;stroke-dasharray:none;stroke-dashoffset:1;stroke-opacity:1;-inkscape-stroke:none;paint-order:normal;stop-color:#000000"
         id="circle23917"
         cx="2216.9319"
         cy="1561.7928"
         r="0.80095315" />
      <circle
         style="font-variation-settings:normal;display:inline;vector-effect:none;fill:#000000;fill-opacity:1;stroke:none;stroke-width:0.937504;stroke-linecap:butt;stroke-linejoin:round;stroke-miterlimit:4;stroke-dasharray:none;stroke-dashoffset:1;stroke-opacity:1;-inkscape-stroke:none;paint-order:normal;stop-color:#000000"
         id="circle23919"
         cx="2218.1169"
         cy="1559.4663"
         r="0.80095315" />
      <path
         style="color:#000000;fill:#000000;fill-opacity:1;stroke:none;stroke-width:1.68938;-inkscape-stroke:none;paint-order:stroke fill markers"
         d="m 2244.2547,1576.4821 a 24.303297,3.1869074 10.561503 0 1 2.5313,2.0166 24.303297,3.1869074 10.561503 0 1 -24.5971,-1.3601 24.303297,3.1869074 10.561503 0 1 -23.1809,-7.5822 24.303297,3.1869074 10.561503 0 1 3.0645,-0.9312 25.812241,3.6977539 10.553708 0 0 -4.6703,1.1947 25.812241,3.6977539 10.553708 0 0 24.549,8.3599 25.812241,3.6977539 10.553708 0 0 26.1938,1.1372 25.812241,3.6977539 10.553708 0 0 -3.8903,-2.8349 z"
         id="path23921" />
    </g>
  </g>
</svg>
