<?xml version="1.0" encoding="UTF-8" standalone="no"?>
<!-- Created with Inkscape (http://www.inkscape.org/) -->

<svg
   width="64"
   height="64"
   viewBox="0 0 16.933333 16.933333"
   version="1.1"
   id="svg18439"
   inkscape:version="1.1.2 (1:1.1+202202050950+0a00cf5339)"
   sodipodi:docname="xyntopia.svg"
   inkscape:export-filename="/home/tom/Dropbox/company/brand/xyntopia.png"
   inkscape:export-xdpi="3072"
   inkscape:export-ydpi="3072"
   xmlns:inkscape="http://www.inkscape.org/namespaces/inkscape"
   xmlns:sodipodi="http://sodipodi.sourceforge.net/DTD/sodipodi-0.dtd"
   xmlns="http://www.w3.org/2000/svg"
   xmlns:svg="http://www.w3.org/2000/svg"
   xmlns:rdf="http://www.w3.org/1999/02/22-rdf-syntax-ns#"
   xmlns:cc="http://creativecommons.org/ns#"
   xmlns:dc="http://purl.org/dc/elements/1.1/">
  <defs
     id="defs18433" />
  <sodipodi:namedview
     id="base"
     pagecolor="#ffffff"
     bordercolor="#666666"
     borderopacity="1.0"
     inkscape:pageopacity="0.0"
     inkscape:pageshadow="2"
     inkscape:zoom="7.9195959"
     inkscape:cx="43.310291"
     inkscape:cy="24.36993"
     inkscape:document-units="mm"
     inkscape:current-layer="layer1"
     showgrid="false"
     inkscape:window-width="1856"
     inkscape:window-height="1043"
     inkscape:window-x="64"
     inkscape:window-y="0"
     inkscape:window-maximized="1"
     units="px"
     width="64px"
     inkscape:pagecheckerboard="0" />
  <metadata
     id="metadata18436">
    <rdf:RDF>
      <cc:Work
         rdf:about="">
        <dc:format>image/svg+xml</dc:format>
        <dc:type
           rdf:resource="http://purl.org/dc/dcmitype/StillImage" />
      </cc:Work>
    </rdf:RDF>
  </metadata>
  <g
     inkscape:label="Layer 1"
     inkscape:groupmode="layer"
     id="layer1"
     transform="translate(0,-280.06667)">
    <g
       id="g1126"
       transform="translate(2.4196942,1.1835637)">
      <rect
         style="display:inline;fill:#2a3548;fill-opacity:1;stroke:none;stroke-width:1.19062;stroke-linecap:butt;stroke-linejoin:round;stroke-miterlimit:4;stroke-dasharray:none;stroke-opacity:1"
         id="rect19196-5-2"
         width="15.922247"
         height="15.544272"
         x="-1.914151"
         y="279.57764"
         ry="3.1659126" />
      <g
         id="g69273"
         transform="matrix(0.29730153,0,0,0.29720417,-890.22932,-95.406921)"
         style="display:inline;stroke-width:0.949435;stroke:none">
        <path
           id="path69243"
           style="fill:#f78f3b;fill-opacity:1;stroke:none;stroke-width:0.624789;stroke-linecap:butt;stroke-linejoin:miter;stroke-miterlimit:4;stroke-dasharray:none;stroke-dashoffset:1;stroke-opacity:1;paint-order:normal"
           inkscape:transform-center-x="-0.0001989482"
           inkscape:transform-center-y="0.00010647898"
           d="m 2366.3145,1486.6406 -13.8165,7.9766 v 15.957 l 11.9688,6.9082 2.0156,-2.0156 a 1.8295608,1.8295608 0 0 0 0.291,-2.209 l -7.539,-13.0566 a 1.4105485,1.4105485 0 0 1 0.5097,-1.9219 l 6.1016,-3.5625 a 1.3971816,1.3971816 0 0 1 1.9141,0.5098 l 6.2382,10.8066 a 1.077193,1.077193 0 0 0 1.6954,0.2227 l 4.4394,-4.4395 v -7.1992 z m 29.3085,0 -13.8183,7.9766 v 5.5273 l 3.5918,-3.5918 a 3.3892451,3.3892451 0 0 1 2.3965,-0.9922 h 11.1504 a 0.58155591,0.58155591 0 0 1 0.4101,0.9922 l -15.3105,15.3125 11.58,6.6836 13.8165,-7.9746 v -15.957 z m -43.9589,25.3848 -4.1621,2.4043 c 0.549,0.1933 1.1081,0.3849 1.7109,0.582 3.7641,1.2312 8.5651,2.5252 13.9707,3.7539 l 0.055,-0.055 z m 31.1523,1.0664 -2.0137,2.0137 a 1.829706,1.829706 0 0 0 -0.289,2.209 l 2.9922,5.1855 c 4.1701,0.5831 8.0009,0.9983 11.2793,1.2285 V 1520 Z m -39.6621,3.8437 -5.3086,3.0645 v 15.9531 l 13.8184,7.9766 13.8125,-7.9766 v -5.5215 l -3.6192,3.6192 a 3.3892451,3.3892451 0 0 1 -2.3965,0.9922 h -11.1523 a 0.58150251,0.58150251 0 0 1 -0.4102,-0.9922 l 12.0645,-12.0645 c -5.075,-1.2146 -9.5981,-2.4912 -13.2656,-3.7402 -1.2997,-0.4425 -2.4651,-0.8787 -3.543,-1.3106 z m 28.3125,7.5059 -4.3125,4.3125 v 7.1992 l 13.8125,7.9766 13.8184,-7.9766 v -8.3593 c -2.6796,-0.1818 -5.6616,-0.4796 -8.8438,-0.875 l 1.8633,3.2285 a 1.3879042,1.3879042 0 0 1 -0.5215,1.9023 l -6.1562,3.4629 a 1.4200057,1.4200057 0 0 1 -1.9258,-0.5293 l -5.7637,-9.9824 c -0.5726,-0.1032 -1.1403,-0.2023 -1.7187,-0.3106 -0.086,-0.016 -0.1665,-0.033 -0.252,-0.049 z"
           transform="matrix(0.71231603,0,0,0.71231603,1323.9498,208.49579)" />
        <path
           id="path69245"
           style="color:#000000;fill:#ffffff;stroke-width:1.01273;stroke-linejoin:round;-inkscape-stroke:none;stroke:none"
           d="m 3210.5137,1359.707 -0.4317,0.25 5.084,8.8106 a 0.250025,0.250025 0 0 0 0.2129,0.125 l 2.1973,0.025 a 0.250025,0.250025 0 0 0 0.1816,-0.074 l 8.4414,-8.4415 -0.3535,-0.3515 -8.3672,8.3672 -1.9492,-0.025 z m 21.6933,0.3438 -13.2929,13.2949 a 0.250025,0.250025 0 0 0 -0.072,0.1797 l 0.012,1.5605 a 0.250025,0.250025 0 0 0 0.033,0.1231 l 2.1153,3.664 c 0.2109,0.032 0.4219,0.064 0.6308,0.096 l -2.2812,-3.9512 -0.01,-1.3926 13.2187,-13.2227 z m -23.1992,1.7304 -0.4336,0.25 5.3047,9.1876 h 4.6797 l 8.8887,-8.8868 -0.3535,-0.3554 -8.7422,8.7422 h -4.1836 z m -2.4238,0.1153 -0.4336,0.25 5.9297,10.2676 -0.018,1.4179 -2.8496,2.8516 c 0.1943,0.042 0.382,0.085 0.5781,0.1269 l 2.6973,-2.6972 a 0.250025,0.250025 0 0 0 0.074,-0.1738 l 0.016,-1.5899 a 0.250025,0.250025 0 0 0 -0.033,-0.1269 z m 6.1348,14.2676 -1.0411,1.041 c 0.197,0.04 0.3874,0.081 0.586,0.1211 l 0.6621,-0.6621 h 4.1816 l 1.0059,1.7421 c 0.215,0.037 0.4271,0.072 0.6406,0.1075 l -1.3555,-2.3496 z m -5.9688,2.9804 -7.9043,7.9063 0.3516,0.3535 8.1289,-8.1289 c -0.1917,-0.043 -0.3864,-0.087 -0.5762,-0.1309 z m 2.4453,0.545 -5.3652,5.3652 0.3535,0.3515 5.5957,-5.5957 c -0.1937,-0.041 -0.3918,-0.08 -0.584,-0.121 z m 2.7949,0.5781 -6.7812,6.7812 0.3535,0.3555 7.0176,-7.0215 c -0.1961,-0.039 -0.3951,-0.076 -0.5899,-0.1152 z m 5.1778,0.9629 3.5312,6.1211 0.4336,-0.25 -3.3262,-5.7657 c -0.2142,-0.036 -0.423,-0.069 -0.6386,-0.1054 z m 2.8457,0.4648 2.2558,3.9063 0.4317,-0.25 -2.0567,-3.5625 c -0.2114,-0.032 -0.4178,-0.061 -0.6308,-0.094 z m 2.8613,0.418 1.9492,3.3769 0.4317,-0.25 -1.7579,-3.0429 c -0.2082,-0.028 -0.4126,-0.055 -0.623,-0.084 z"
           transform="scale(0.9375)" />
        <circle
           style="display:inline;fill:#fdfdfd;fill-opacity:1;stroke:none;stroke-width:0.890098;stroke-linecap:butt;stroke-linejoin:round;stroke-miterlimit:4;stroke-dasharray:none;stroke-dashoffset:1;stroke-opacity:1;paint-order:normal"
           id="circle69247"
           cx="3024.2163"
           cy="1275.3477"
           r="0.80097389" />
        <circle
           style="display:inline;fill:#fdfdfd;fill-opacity:1;stroke:none;stroke-width:0.890099;stroke-linecap:butt;stroke-linejoin:round;stroke-miterlimit:4;stroke-dasharray:none;stroke-dashoffset:1;stroke-opacity:1;paint-order:normal"
           id="circle69249"
           cx="3025.0737"
           cy="1277.4474"
           r="0.80095315" />
        <circle
           style="font-variation-settings:normal;display:inline;opacity:1;vector-effect:none;fill:#fdfdfd;fill-opacity:1;stroke:none;stroke-width:0.890099;stroke-linecap:butt;stroke-linejoin:round;stroke-miterlimit:4;stroke-dasharray:none;stroke-dashoffset:1;stroke-opacity:1;-inkscape-stroke:none;paint-order:normal;stop-color:#000000;stop-opacity:1"
           id="circle69251"
           cx="3030.2212"
           cy="1275.2465"
           r="0.80095315" />
        <circle
           style="font-variation-settings:normal;display:inline;vector-effect:none;fill:#fdfdfd;fill-opacity:1;stroke:none;stroke-width:0.890099;stroke-linecap:butt;stroke-linejoin:round;stroke-miterlimit:4;stroke-dasharray:none;stroke-dashoffset:1;stroke-opacity:1;-inkscape-stroke:none;paint-order:normal;stop-color:#000000"
           id="circle69253"
           cx="3023.4736"
           cy="1298.782"
           r="0.80095315" />
        <circle
           style="font-variation-settings:normal;display:inline;vector-effect:none;fill:#fdfdfd;fill-opacity:1;stroke:none;stroke-width:0.890099;stroke-linecap:butt;stroke-linejoin:round;stroke-miterlimit:4;stroke-dasharray:none;stroke-dashoffset:1;stroke-opacity:1;-inkscape-stroke:none;paint-order:normal;stop-color:#000000"
           id="circle69255"
           cx="3020.8381"
           cy="1298.5536"
           r="0.80095315" />
        <circle
           style="font-variation-settings:normal;display:inline;vector-effect:none;fill:#fdfdfd;fill-opacity:1;stroke:none;stroke-width:0.890099;stroke-linecap:butt;stroke-linejoin:round;stroke-miterlimit:4;stroke-dasharray:none;stroke-dashoffset:1;stroke-opacity:1;-inkscape-stroke:none;paint-order:normal;stop-color:#000000"
           id="circle69257"
           cx="3019.6135"
           cy="1300.5527"
           r="0.80095315" />
        <circle
           style="font-variation-settings:normal;display:inline;vector-effect:none;fill:#fdfdfd;fill-opacity:1;stroke:none;stroke-width:0.890099;stroke-linecap:butt;stroke-linejoin:round;stroke-miterlimit:4;stroke-dasharray:none;stroke-dashoffset:1;stroke-opacity:1;-inkscape-stroke:none;paint-order:normal;stop-color:#000000"
           id="circle69259"
           cx="3005.1406"
           cy="1300.613"
           r="0.80095315" />
        <circle
           style="font-variation-settings:normal;display:inline;vector-effect:none;fill:#fdfdfd;fill-opacity:1;stroke:none;stroke-width:0.890099;stroke-linecap:butt;stroke-linejoin:round;stroke-miterlimit:4;stroke-dasharray:none;stroke-dashoffset:1;stroke-opacity:1;-inkscape-stroke:none;paint-order:normal;stop-color:#000000"
           id="circle69261"
           cx="3003.7861"
           cy="1298.7058"
           r="0.80095315" />
        <circle
           style="font-variation-settings:normal;display:inline;vector-effect:none;fill:#fdfdfd;fill-opacity:1;stroke:none;stroke-width:0.890099;stroke-linecap:butt;stroke-linejoin:round;stroke-miterlimit:4;stroke-dasharray:none;stroke-dashoffset:1;stroke-opacity:1;-inkscape-stroke:none;paint-order:normal;stop-color:#000000"
           id="circle69263"
           cx="2999.1426"
           cy="1300.5579"
           r="0.80095315" />
        <circle
           style="font-variation-settings:normal;display:inline;vector-effect:none;fill:#fdfdfd;fill-opacity:1;stroke:none;stroke-width:0.890099;stroke-linecap:butt;stroke-linejoin:round;stroke-miterlimit:4;stroke-dasharray:none;stroke-dashoffset:1;stroke-opacity:1;-inkscape-stroke:none;paint-order:normal;stop-color:#000000"
           id="circle69265"
           cx="3006.0227"
           cy="1276.9431"
           r="0.80095315" />
        <circle
           style="font-variation-settings:normal;display:inline;vector-effect:none;fill:#fdfdfd;fill-opacity:1;stroke:none;stroke-width:0.890099;stroke-linecap:butt;stroke-linejoin:round;stroke-miterlimit:4;stroke-dasharray:none;stroke-dashoffset:1;stroke-opacity:1;-inkscape-stroke:none;paint-order:normal;stop-color:#000000"
           id="circle69267"
           cx="3008.4983"
           cy="1277.2047"
           r="0.80095315" />
        <circle
           style="font-variation-settings:normal;display:inline;vector-effect:none;fill:#fdfdfd;fill-opacity:1;stroke:none;stroke-width:0.890099;stroke-linecap:butt;stroke-linejoin:round;stroke-miterlimit:4;stroke-dasharray:none;stroke-dashoffset:1;stroke-opacity:1;-inkscape-stroke:none;paint-order:normal;stop-color:#000000"
           id="circle69269"
           cx="3009.6833"
           cy="1274.8782"
           r="0.80095315" />
        <path
           id="path69271"
           style="display:inline;fill:#fefefe;fill-opacity:1;stroke:none;stroke-width:1.60396;stroke-linecap:butt;stroke-linejoin:miter;stroke-miterlimit:4;stroke-dasharray:none;stroke-dashoffset:0;stroke-opacity:1;paint-order:stroke fill markers"
           d="m 3035.8211,1291.8939 a 24.303297,3.1869074 10.561503 0 1 2.5313,2.0166 24.303297,3.1869074 10.561503 0 1 -24.5971,-1.3601 24.303297,3.1869074 10.561503 0 1 -23.1809,-7.5822 24.303297,3.1869074 10.561503 0 1 3.0645,-0.9312 25.812241,3.6977539 10.553708 0 0 -4.6703,1.1947 25.812241,3.6977539 10.553708 0 0 24.549,8.3599 25.812241,3.6977539 10.553708 0 0 26.1938,1.1372 25.812241,3.6977539 10.553708 0 0 -3.8903,-2.8349 z" />
      </g>
    </g>
  </g>
</svg>
